<?xml version="1.0" encoding="utf-8" standalone="no"?>
<!DOCTYPE svg PUBLIC "-//W3C//DTD SVG 1.1//EN"
  "http://www.w3.org/Graphics/SVG/1.1/DTD/svg11.dtd">
<!-- Created with matplotlib (https://matplotlib.org/) -->
<svg height="216pt" version="1.1" viewBox="0 0 576 216" width="576pt" xmlns="http://www.w3.org/2000/svg" xmlns:xlink="http://www.w3.org/1999/xlink">
 <defs>
  <style type="text/css">
*{stroke-linecap:butt;stroke-linejoin:round;}
  </style>
 </defs>
 <g id="figure_1">
  <g id="patch_1">
   <path d="M 0 216 
L 576 216 
L 576 0 
L 0 0 
z
" style="fill:#ffffff;"/>
  </g>
  <g id="axes_1">
   <g id="patch_2">
    <path d="M 112.992621 174.04 
L 562.289041 174.04 
L 562.289041 26.16 
L 112.992621 26.16 
z
" style="fill:#ffffff;"/>
   </g>
   <g id="matplotlib.axis_1">
    <g id="xtick_1">
     <g id="line2d_1">
      <path clip-path="url(#p96b546d1f3)" d="M 112.992621 174.04 
L 112.992621 26.16 
" style="fill:none;stroke:#b0b0b0;stroke-linecap:square;"/>
     </g>
     <g id="line2d_2">
      <defs>
       <path d="M 0 0 
L 0 3.5 
" id="meb7cb9879f" style="stroke:#000000;stroke-width:0.8;"/>
      </defs>
      <g>
       <use style="stroke:#000000;stroke-width:0.8;" x="112.992621" xlink:href="#meb7cb9879f" y="174.04"/>
      </g>
     </g>
     <g id="text_1">
      <!-- 0 -->
      <defs>
       <path d="M 42 31.640625 
C 42 37.75 41.90625 48.125 37.703125 56.109375 
C 34 63.109375 28.09375 65.59375 22.90625 65.59375 
C 18.09375 65.59375 12 63.40625 8.203125 56.203125 
C 4.203125 48.71875 3.796875 39.4375 3.796875 31.640625 
C 3.796875 25.953125 3.90625 17.28125 7 9.671875 
C 11.296875 -0.609375 19 -2 22.90625 -2 
C 27.5 -2 34.5 -0.109375 38.59375 9.375 
C 41.59375 16.28125 42 24.359375 42 31.640625 
z
M 22.90625 -0.40625 
C 16.5 -0.40625 12.703125 5.078125 11.296875 12.6875 
C 10.203125 18.5625 10.203125 27.15625 10.203125 32.75 
C 10.203125 40.4375 10.203125 46.828125 11.5 52.921875 
C 13.40625 61.390625 19 64 22.90625 64 
C 27 64 32.296875 61.296875 34.203125 53.125 
C 35.5 47.4375 35.59375 40.734375 35.59375 32.75 
C 35.59375 26.25 35.59375 18.265625 34.40625 12.375 
C 32.296875 1.484375 26.40625 -0.40625 22.90625 -0.40625 
z
" id="CMR17-48"/>
      </defs>
      <g transform="translate(110.501954 187.958498)scale(0.1 -0.1)">
       <use transform="scale(0.996264)" xlink:href="#CMR17-48"/>
      </g>
     </g>
    </g>
    <g id="xtick_2">
     <g id="line2d_3">
      <path clip-path="url(#p96b546d1f3)" d="M 360.105652 174.04 
L 360.105652 26.16 
" style="fill:none;stroke:#b0b0b0;stroke-linecap:square;"/>
     </g>
     <g id="line2d_4">
      <g>
       <use style="stroke:#000000;stroke-width:0.8;" x="360.105652" xlink:href="#meb7cb9879f" y="174.04"/>
      </g>
     </g>
     <g id="text_2">
      <!-- $t_{USE,n}$ -->
      <defs>
       <path d="M 20.09375 40.09375 
L 29.296875 40.09375 
C 31.203125 40.09375 32.203125 40.09375 32.203125 41.890625 
C 32.203125 43 31.59375 43 29.59375 43 
L 20.796875 43 
L 24.5 57.6875 
C 24.90625 59.078125 24.90625 59.28125 24.90625 60 
C 24.90625 61.609375 23.59375 62.5 22.296875 62.5 
C 21.5 62.5 19.203125 62.203125 18.40625 58.984375 
L 14.5 43 
L 5.09375 43 
C 3.09375 43 2.203125 43 2.203125 41.09375 
C 2.203125 40.09375 2.90625 40.09375 4.796875 40.09375 
L 13.703125 40.09375 
L 7.09375 13.765625 
C 6.296875 10.28125 6 9.28125 6 7.984375 
C 6 3.296875 9.296875 -1 14.90625 -1 
C 25 -1 30.40625 13.5625 30.40625 14.25 
C 30.40625 14.859375 30 15.15625 29.40625 15.15625 
C 29.203125 15.15625 28.796875 15.15625 28.59375 14.75 
C 28.5 14.65625 28.40625 14.546875 27.703125 12.953125 
C 25.59375 7.984375 21 1 15.203125 1 
C 12.203125 1 12 3.5 12 5.6875 
C 12 5.78125 12 7.6875 12.296875 8.875 
z
" id="CMMI12-116"/>
       <path d="M 50.59375 23.03125 
C 47.09375 9.078125 35.5 0.890625 26.09375 0.890625 
C 18.90625 0.890625 14 5.671875 14 13.921875 
C 14 14.3125 14 17.296875 15.09375 21.671875 
L 24.90625 60.734375 
C 25.796875 64.109375 26 65.109375 33.09375 65.109375 
C 34.90625 65.109375 35.90625 65.109375 35.90625 66.90625 
C 35.90625 68 35 68 34.40625 68 
C 32.59375 68 30.5 68 28.59375 68 
L 16.796875 68 
C 14.90625 68 12.796875 68 10.90625 68 
C 10.203125 68 9 68 9 66.109375 
C 9 65.109375 9.703125 65.109375 11.59375 65.109375 
C 17.59375 65.109375 17.59375 64.3125 17.59375 63.21875 
C 17.59375 62.625 16.90625 59.75 16.40625 58.046875 
L 7.703125 23.25 
C 7.40625 22.15625 6.796875 19.46875 6.796875 16.796875 
C 6.796875 5.84375 14.703125 -2 25.59375 -2 
C 35.703125 -2 46.90625 6 52 18.703125 
C 52.703125 20.390625 53.59375 23.90625 54.203125 26.59375 
C 55.203125 30.203125 57.296875 39 58 41.59375 
L 61.796875 56.609375 
C 63.09375 61.8125 63.90625 65.109375 72.703125 65.109375 
C 73.5 65.203125 73.90625 66 73.90625 66.90625 
C 73.90625 68 73 68 72.59375 68 
C 71.203125 68 69.40625 68 68 68 
L 63.296875 68 
C 57.09375 68 53.90625 68 53.796875 68 
C 53.203125 68 52 68 52 66.109375 
C 52 65.109375 52.796875 65.109375 53.5 65.109375 
C 59.5 65.109375 59.90625 62.8125 59.90625 61.015625 
C 59.90625 60.125 59.90625 59.8125 59.5 58.421875 
z
" id="CMMI12-85"/>
       <path d="M 63.5 69.109375 
C 63.5 70 62.796875 70 62.59375 70 
C 62.203125 70 62.09375 69.90625 60.90625 68.40625 
C 60.296875 67.703125 56.203125 62.515625 56.09375 62.421875 
C 52.796875 68.90625 46.203125 70 42 70 
C 29.296875 70 17.796875 58.484375 17.796875 47.265625 
C 17.796875 39.828125 22.296875 35.453125 27.203125 33.765625 
C 28.296875 33.359375 34.203125 31.765625 37.203125 31.078125 
C 42.296875 29.6875 43.59375 29.296875 45.703125 27.109375 
C 46.09375 26.609375 48.09375 24.328125 48.09375 19.65625 
C 48.09375 10.421875 39.5 0.890625 29.5 0.890625 
C 21.296875 0.890625 12.203125 4.375 12.203125 15.484375 
C 12.203125 17.375 12.59375 19.765625 12.90625 20.75 
C 12.90625 21.0625 13 21.53125 13 21.734375 
C 13 22.140625 12.796875 22.640625 12 22.640625 
C 11.09375 22.640625 11 22.4375 10.59375 20.75 
L 5.5 0.375 
C 5.5 0.28125 5.09375 -1 5.09375 -1.109375 
C 5.09375 -2 5.90625 -2 6.09375 -2 
C 6.5 -2 6.59375 -1.90625 7.796875 -0.40625 
L 12.40625 5.5625 
C 14.796875 1.96875 20 -2 29.296875 -2 
C 42.203125 -2 54 10.40625 54 22.8125 
C 54 27 53 30.671875 49.203125 34.328125 
C 47.09375 36.421875 45.296875 36.921875 36.09375 39.3125 
C 29.40625 41.09375 28.5 41.390625 26.703125 42.984375 
C 25 44.65625 23.703125 47.046875 23.703125 50.421875 
C 23.703125 58.765625 32.203125 67.3125 41.703125 67.3125 
C 51.5 67.3125 56.09375 61.34375 56.09375 51.921875 
C 56.09375 49.34375 55.59375 46.65625 55.59375 46.265625 
C 55.59375 45.359375 56.40625 45.359375 56.703125 45.359375 
C 57.59375 45.359375 57.703125 45.65625 58.09375 47.25 
z
" id="CMMI12-83"/>
       <path d="M 69.5 23.265625 
C 69.59375 23.5625 69.90625 24.28125 69.90625 24.671875 
C 69.90625 25.171875 69.5 25.671875 68.90625 25.671875 
C 68.5 25.671875 68.296875 25.578125 68 25.265625 
C 67.796875 25.171875 67.796875 24.96875 66.90625 22.953125 
C 61 8.90625 56.703125 2.890625 40.703125 2.890625 
L 26.09375 2.890625 
C 24.703125 2.890625 24.5 2.890625 23.90625 3 
C 22.796875 3.09375 22.703125 3.296875 22.703125 4.09375 
C 22.703125 4.796875 22.90625 5.390625 23.09375 6.296875 
L 30 34 
L 39.90625 34 
C 47.703125 34 48.296875 32.28125 48.296875 29.28125 
C 48.296875 28.28125 48.296875 27.375 47.59375 24.375 
C 47.40625 23.96875 47.296875 23.5625 47.296875 23.265625 
C 47.296875 22.5625 47.796875 22.265625 48.40625 22.265625 
C 49.296875 22.265625 49.40625 22.953125 49.796875 24.359375 
L 55.5 47.53125 
C 55.5 48.015625 55.09375 48.515625 54.5 48.515625 
C 53.59375 48.515625 53.5 48.125 53.09375 46.71875 
C 51.09375 39.078125 49.09375 36.890625 40.203125 36.890625 
L 30.703125 36.890625 
L 36.90625 61.40625 
C 37.796875 64.90625 38 64.90625 42.09375 64.90625 
L 56.40625 64.90625 
C 68.703125 64.90625 71.203125 61.609375 71.203125 54.03125 
C 71.203125 53.921875 71.203125 51.140625 70.796875 47.84375 
C 70.703125 47.4375 70.59375 46.84375 70.59375 46.640625 
C 70.59375 45.84375 71.09375 45.546875 71.703125 45.546875 
C 72.40625 45.546875 72.796875 45.953125 73 47.734375 
L 75.09375 65.21875 
C 75.09375 65.546875 75.296875 66.609375 75.296875 66.828125 
C 75.296875 68 74.40625 68 72.59375 68 
L 23.796875 68 
C 21.90625 68 20.90625 68 20.90625 66.078125 
C 20.90625 64.90625 21.59375 64.90625 23.296875 64.90625 
C 29.5 64.90625 29.5 64.28125 29.5 63.3125 
C 29.5 62.8125 29.40625 62.40625 29.09375 61.3125 
L 15.59375 7.390625 
C 14.703125 3.890625 14.5 2.890625 7.5 2.890625 
C 5.59375 2.890625 4.59375 2.890625 4.59375 1.09375 
C 4.59375 0 5.203125 0 7.203125 0 
L 57.40625 0 
C 59.59375 0 59.703125 0.09375 60.40625 1.71875 
z
" id="CMMI12-69"/>
       <path d="M 19.5 -0.484375 
C 19.5 5.359375 17.59375 9.671875 13.5 9.671875 
C 10.296875 9.671875 8.703125 7.078125 8.703125 4.890625 
C 8.703125 2.6875 10.203125 0 13.59375 0 
C 14.90625 0 16 0.40625 16.90625 1.296875 
C 17.09375 1.5 17.203125 1.5 17.296875 1.5 
C 17.5 1.5 17.5 0.078125 17.5 -0.421875 
C 17.5 -3.75 16.90625 -10.296875 11.09375 -16.875 
C 10 -18.078125 10 -18.28125 10 -18.484375 
C 10 -19 10.5 -19.5 11 -19.5 
C 11.796875 -19.5 19.5 -12.046875 19.5 -0.484375 
z
" id="CMMI12-59"/>
       <path d="M 20.59375 29.234375 
C 20.796875 29.84375 23.296875 34.828125 27 38.015625 
C 29.59375 40.40625 33 42.015625 36.90625 42.015625 
C 40.90625 42.015625 42.296875 39.015625 42.296875 35.03125 
C 42.296875 29.34375 38.203125 17.96875 36.203125 12.578125 
C 35.296875 10.171875 34.796875 8.875 34.796875 7.078125 
C 34.796875 2.59375 37.90625 -1 42.703125 -1 
C 52 -1 55.5 13.671875 55.5 14.265625 
C 55.5 14.765625 55.09375 15.171875 54.5 15.171875 
C 53.59375 15.171875 53.5 14.875 53 13.171875 
C 50.703125 4.984375 46.90625 1 43 1 
C 42 1 40.40625 1 40.40625 4.203125 
C 40.40625 6.703125 41.5 9.703125 42.09375 11.09375 
C 44.09375 16.609375 48.296875 27.8125 48.296875 33.515625 
C 48.296875 39.5 44.796875 44 37.203125 44 
C 28.296875 44 23.59375 37.734375 21.796875 35.234375 
C 21.5 40.90625 17.40625 44 13 44 
C 9.796875 44 7.59375 42.109375 5.90625 38.71875 
C 4.09375 35.125 2.703125 29.140625 2.703125 28.734375 
C 2.703125 28.34375 3.09375 27.84375 3.796875 27.84375 
C 4.59375 27.84375 4.703125 27.9375 5.296875 30.234375 
C 6.90625 36.328125 8.703125 42.015625 12.703125 42.015625 
C 15 42.015625 15.796875 40.40625 15.796875 37.421875 
C 15.796875 35.21875 14.796875 31.328125 14.09375 28.234375 
L 11.296875 17.46875 
C 10.90625 15.5625 9.796875 11.078125 9.296875 9.28125 
C 8.59375 6.6875 7.5 2 7.5 1.5 
C 7.5 0.09375 8.59375 -1 10.09375 -1 
C 11.296875 -1 12.703125 -0.40625 13.5 1.09375 
C 13.703125 1.59375 14.59375 5.09375 15.09375 7.078125 
L 17.296875 16.0625 
z
" id="CMMI12-110"/>
      </defs>
      <g transform="translate(345.821077 188.081025)scale(0.1 -0.1)">
       <use transform="translate(0 14.943915)scale(0.996264)" xlink:href="#CMMI12-116"/>
       <use transform="translate(35.22633 0)scale(0.697382)" xlink:href="#CMMI12-85"/>
       <use transform="translate(88.887239 0)scale(0.697382)" xlink:href="#CMMI12-83"/>
       <use transform="translate(134.943136 0)scale(0.697382)" xlink:href="#CMMI12-69"/>
       <use transform="translate(189.579041 0)scale(0.697382)" xlink:href="#CMMI12-59"/>
       <use transform="translate(208.546974 0)scale(0.697382)" xlink:href="#CMMI12-110"/>
      </g>
     </g>
    </g>
    <g id="xtick_3">
     <g id="line2d_5">
      <path clip-path="url(#p96b546d1f3)" d="M 562.289041 174.04 
L 562.289041 26.16 
" style="fill:none;stroke:#b0b0b0;stroke-linecap:square;"/>
     </g>
     <g id="line2d_6">
      <g>
       <use style="stroke:#000000;stroke-width:0.8;" x="562.289041" xlink:href="#meb7cb9879f" y="174.04"/>
      </g>
     </g>
     <g id="text_3">
      <!-- $T$ -->
      <defs>
       <path d="M 41.703125 61.09375 
C 42.296875 63.5 42.5 64.390625 44 64.796875 
C 44.796875 65 48.09375 65 50.203125 65 
C 60.203125 65 64.90625 64.59375 64.90625 56.78125 
C 64.90625 55.265625 64.5 51.484375 63.90625 47.765625 
L 63.796875 46.5625 
C 63.796875 46.15625 64.203125 45.5625 64.796875 45.5625 
C 65.796875 45.5625 65.796875 46.0625 66.09375 47.65625 
L 69 65.375 
C 69.203125 66.296875 69.203125 66.5 69.203125 66.796875 
C 69.203125 67.890625 68.59375 67.890625 66.59375 67.890625 
L 11.90625 67.890625 
C 9.59375 67.890625 9.5 67.796875 8.90625 66 
L 2.796875 47.96875 
C 2.703125 47.75 2.40625 46.65625 2.40625 46.5625 
C 2.40625 46.0625 2.796875 45.5625 3.40625 45.5625 
C 4.203125 45.5625 4.40625 45.953125 4.796875 47.25 
C 9 59.390625 11.09375 65 24.40625 65 
L 31.09375 65 
C 33.5 65 34.5 65 34.5 63.890625 
C 34.5 63.578125 34.5 63.390625 34 61.578125 
L 20.59375 7.796875 
C 19.59375 3.890625 19.40625 2.890625 8.796875 2.890625 
C 6.296875 2.890625 5.59375 2.890625 5.59375 1 
C 5.59375 0 6.703125 0 7.203125 0 
C 9.703125 0 12.296875 0 14.796875 0 
L 30.40625 0 
C 32.90625 0 35.59375 0 38.09375 0 
C 39.203125 0 40.203125 0 40.203125 1.890625 
C 40.203125 2.890625 39.5 2.890625 36.90625 2.890625 
C 27.90625 2.890625 27.90625 3.796875 27.90625 5.296875 
C 27.90625 5.40625 27.90625 6.109375 28.296875 7.71875 
z
" id="CMMI12-84"/>
      </defs>
      <g transform="translate(559.378082 187.958498)scale(0.1 -0.1)">
       <use transform="scale(0.996264)" xlink:href="#CMMI12-84"/>
      </g>
     </g>
    </g>
    <g id="text_4">
     <!-- time (h) -->
     <defs>
      <path d="M 15.09375 40 
L 29.09375 40 
L 29.09375 42.578125 
L 15.09375 42.578125 
L 15.09375 61 
L 13.296875 61 
C 13.09375 50.703125 9.59375 41.6875 1.09375 41.6875 
L 1.09375 40 
L 9.796875 40 
L 9.796875 12.046875 
C 9.796875 10.15625 9.796875 -1 21.40625 -1 
C 27.296875 -1 30.703125 4.78125 30.703125 12.140625 
L 30.703125 17.8125 
L 28.90625 17.8125 
L 28.90625 12.234375 
C 28.90625 5.375 26.203125 0.796875 22 0.796875 
C 19.09375 0.796875 15.09375 2.78125 15.09375 11.84375 
z
" id="CMR17-116"/>
      <path d="M 15.5 61.078125 
C 15.5 63.265625 13.703125 65.15625 11.40625 65.15625 
C 9.203125 65.15625 7.296875 63.375 7.296875 61.078125 
C 7.296875 58.890625 9.09375 57 11.40625 57 
C 13.59375 57 15.5 58.796875 15.5 61.078125 
z
M 3.796875 42.28125 
L 3.796875 39.703125 
C 9.40625 39.703125 10.203125 39.09375 10.203125 34.328125 
L 10.203125 6.671875 
C 10.203125 2.875 9.796875 2.390625 3.40625 2.390625 
L 3.40625 -0.203125 
C 5.796875 0 10.09375 0 12.59375 0 
C 15 0 19.09375 0 21.40625 -0.203125 
L 21.40625 2.390625 
C 15.5 2.390625 15.296875 2.984375 15.296875 6.5625 
L 15.296875 43.375 
z
" id="CMR17-105"/>
      <path d="M 67.59375 30.203125 
C 67.59375 35.1875 66.703125 43.59375 54.796875 43.59375 
C 48 43.59375 43.296875 39 41.5 33.609375 
L 41.40625 33.609375 
C 40.203125 41.8125 34.296875 43.59375 28.703125 43.59375 
C 20.796875 43.59375 16.703125 37.5 15.203125 33.5 
L 15.09375 33.5 
L 15.09375 43.59375 
L 3.296875 42.5 
L 3.296875 39.90625 
C 9.203125 39.90625 10.09375 39.296875 10.09375 34.5 
L 10.09375 6.6875 
C 10.09375 2.875 9.703125 2.390625 3.296875 2.390625 
L 3.296875 -0.203125 
C 5.703125 0 10.09375 0 12.703125 0 
C 15.296875 0 19.796875 0 22.203125 -0.203125 
L 22.203125 2.390625 
C 15.796875 2.390625 15.40625 2.78125 15.40625 6.6875 
L 15.40625 25.90625 
C 15.40625 35.109375 21 42 28 42 
C 35.40625 42 36.203125 35.40625 36.203125 30.59375 
L 36.203125 6.6875 
C 36.203125 2.875 35.796875 2.390625 29.40625 2.390625 
L 29.40625 -0.203125 
C 31.796875 0 36.203125 0 38.796875 0 
C 41.40625 0 45.90625 0 48.296875 -0.203125 
L 48.296875 2.390625 
C 41.90625 2.390625 41.5 2.78125 41.5 6.6875 
L 41.5 25.90625 
C 41.5 35.109375 47.09375 42 54.09375 42 
C 61.5 42 62.296875 35.40625 62.296875 30.59375 
L 62.296875 6.6875 
C 62.296875 2.875 61.90625 2.390625 55.5 2.390625 
L 55.5 -0.203125 
C 57.90625 0 62.296875 0 64.90625 0 
C 67.5 0 72 0 74.40625 -0.203125 
L 74.40625 2.390625 
C 68 2.390625 67.59375 2.78125 67.59375 6.6875 
z
" id="CMR17-109"/>
      <path d="M 38.09375 23 
C 38.5 23.40625 38.5 23.609375 38.5 24.625 
C 38.5 34.96875 33.09375 44 21.703125 44 
C 11.09375 44 2.703125 33.890625 2.703125 21.609375 
C 2.703125 8.609375 12.203125 -1 22.796875 -1 
C 34 -1 38.40625 9.484375 38.40625 11.5625 
C 38.40625 12.25 37.796875 12.25 37.59375 12.25 
C 36.90625 12.25 36.796875 12.046875 36.40625 10.875 
C 34.203125 4.140625 28.703125 0.796875 23.5 0.796875 
C 19.203125 0.796875 14.90625 3.171875 12.203125 7.5 
C 9.09375 12.546875 9.09375 18.375 9.09375 23 
z
M 9.203125 24.5 
C 9.90625 39.140625 17.59375 42.40625 21.59375 42.40625 
C 28.40625 42.40625 33 35.890625 33.09375 24.5 
z
" id="CMR17-101"/>
      <path d="M 30.59375 -24.390625 
C 30.59375 -24.296875 30.59375 -24.09375 30.296875 -23.796875 
C 25.703125 -19.125 13.40625 -6.359375 13.40625 24.703125 
C 13.40625 55.765625 25.5 68.421875 30.40625 73.390625 
C 30.40625 73.5 30.59375 73.703125 30.59375 74 
C 30.59375 74.296875 30.296875 74.5 29.90625 74.5 
C 28.796875 74.5 20.296875 67.125 15.40625 56.15625 
C 10.40625 45.109375 9 34.359375 9 24.8125 
C 9 17.625 9.703125 5.484375 15.703125 -7.359375 
C 20.5 -17.734375 28.703125 -25 29.90625 -25 
C 30.40625 -25 30.59375 -24.796875 30.59375 -24.390625 
z
" id="CMR17-40"/>
      <path d="M 41.5 30.203125 
C 41.5 35.296875 40.5 43.59375 28.703125 43.59375 
C 20.5 43.59375 16.5 37 15.296875 33.703125 
L 15.203125 33.703125 
L 15.203125 68.6875 
L 3.296875 67.59375 
L 3.296875 65 
C 9.203125 65 10.09375 64.40625 10.09375 59.640625 
L 10.09375 6.65625 
C 10.09375 2.875 9.703125 2.390625 3.296875 2.390625 
L 3.296875 -0.203125 
C 5.703125 0 10.09375 0 12.703125 0 
C 15.296875 0 19.796875 0 22.203125 -0.203125 
L 22.203125 2.390625 
C 15.796875 2.390625 15.40625 2.78125 15.40625 6.6875 
L 15.40625 25.90625 
C 15.40625 35.109375 21 42 28 42 
C 35.40625 42 36.203125 35.40625 36.203125 30.59375 
L 36.203125 6.6875 
C 36.203125 2.875 35.796875 2.390625 29.40625 2.390625 
L 29.40625 -0.203125 
C 31.796875 0 36.203125 0 38.796875 0 
C 41.40625 0 45.90625 0 48.296875 -0.203125 
L 48.296875 2.390625 
C 41.90625 2.390625 41.5 2.78125 41.5 6.6875 
z
" id="CMR17-104"/>
      <path d="M 26.296875 24.703125 
C 26.296875 31.875 25.59375 44.015625 19.59375 56.859375 
C 14.796875 67.234375 6.59375 74.5 5.40625 74.5 
C 5.09375 74.5 4.703125 74.390625 4.703125 73.890625 
C 4.703125 73.703125 4.796875 73.59375 4.90625 73.390625 
C 9.703125 68.40625 21.90625 55.75 21.90625 24.75 
C 21.90625 -6.359375 9.796875 -19.015625 4.90625 -24.015625 
C 4.796875 -24.203125 4.703125 -24.3125 4.703125 -24.5 
C 4.703125 -25 5.09375 -25 5.40625 -25 
C 6.5 -25 15 -17.625 19.90625 -6.65625 
C 24.90625 4.390625 26.296875 15.140625 26.296875 24.703125 
z
" id="CMR17-41"/>
     </defs>
     <g transform="translate(319.652691 201.490183)scale(0.1 -0.1)">
      <use transform="scale(0.996264)" xlink:href="#CMR17-116"/>
      <use transform="translate(35.280768 0)scale(0.996264)" xlink:href="#CMR17-105"/>
      <use transform="translate(60.151826 0)scale(0.996264)" xlink:href="#CMR17-109"/>
      <use transform="translate(137.071416 0)scale(0.996264)" xlink:href="#CMR17-101"/>
      <use transform="translate(207.633043 0)scale(0.996264)" xlink:href="#CMR17-40"/>
      <use transform="translate(242.913811 0)scale(0.996264)" xlink:href="#CMR17-104"/>
      <use transform="translate(293.809181 0)scale(0.996264)" xlink:href="#CMR17-41"/>
     </g>
    </g>
   </g>
   <g id="matplotlib.axis_2">
    <g id="ytick_1">
     <g id="line2d_7">
      <path clip-path="url(#p96b546d1f3)" d="M 112.992621 144.464 
L 562.289041 144.464 
" style="fill:none;stroke:#b0b0b0;stroke-dasharray:3.7,1.6;stroke-dashoffset:0;"/>
     </g>
     <g id="line2d_8">
      <defs>
       <path d="M 0 0 
L -3.5 0 
" id="m045ff11cf1" style="stroke:#000000;stroke-width:0.8;"/>
      </defs>
      <g>
       <use style="stroke:#000000;stroke-width:0.8;" x="112.992621" xlink:href="#m045ff11cf1" y="144.464"/>
      </g>
     </g>
     <g id="text_5">
      <!-- (Process Users) -->
      <defs>
       <path d="M 19.796875 31.90625 
L 35.796875 31.90625 
C 48.703125 31.90625 58.09375 40.28125 58.09375 49.75 
C 58.09375 59.234375 48.90625 68 35.796875 68 
L 5.203125 68 
L 5.203125 65.40625 
C 12.09375 65.40625 13.203125 65.40625 13.203125 60.921875 
L 13.203125 6.96875 
C 13.203125 2.5 12.09375 2.5 5.203125 2.5 
L 5.203125 0 
C 8.09375 0 13.40625 0 16.5 0 
C 19.59375 0 24.90625 0 27.796875 0 
L 27.796875 2.5 
C 20.90625 2.5 19.796875 2.5 19.796875 6.96875 
z
M 19.59375 34 
L 19.59375 61.53125 
C 19.59375 64.921875 19.796875 65.40625 23.796875 65.40625 
L 33.90625 65.40625 
C 46.796875 65.40625 50.5 58.03125 50.5 49.75 
C 50.5 40.6875 46.09375 34 33.90625 34 
z
" id="CMR17-80"/>
       <path d="M 15 23.390625 
C 15 33 19.09375 42 26.59375 42 
C 27.296875 42 28 41.90625 28.703125 41.59375 
C 28.703125 41.59375 26.5 40.890625 26.5 38.3125 
C 26.5 35.90625 28.40625 34.90625 29.90625 34.90625 
C 31.09375 34.90625 33.296875 35.609375 33.296875 38.40625 
C 33.296875 41.609375 30.09375 43.59375 26.703125 43.59375 
C 19.09375 43.59375 15.796875 36.203125 14.796875 32.703125 
L 14.703125 32.703125 
L 14.703125 43.59375 
L 3.09375 42.5 
L 3.09375 39.90625 
C 9 39.90625 9.90625 39.296875 9.90625 34.5 
L 9.90625 6.6875 
C 9.90625 2.875 9.5 2.390625 3.09375 2.390625 
L 3.09375 -0.203125 
C 5.5 0 10.09375 0 12.703125 0 
C 15.59375 0 20.703125 0 23.40625 -0.203125 
L 23.40625 2.390625 
C 16.203125 2.390625 15 2.390625 15 6.875 
z
" id="CMR17-114"/>
       <path d="M 43.09375 21.1875 
C 43.09375 34 33.796875 44 22.90625 44 
C 12 44 2.703125 34 2.703125 21.1875 
C 2.703125 8.609375 12 -1 22.90625 -1 
C 33.796875 -1 43.09375 8.609375 43.09375 21.1875 
z
M 22.90625 0.796875 
C 18.203125 0.796875 14.203125 3.59375 11.90625 7.5 
C 9.40625 11.984375 9.09375 17.59375 9.09375 22 
C 9.09375 26.203125 9.296875 31.40625 11.90625 35.90625 
C 13.90625 39.203125 17.796875 42.40625 22.90625 42.40625 
C 27.40625 42.40625 31.203125 39.90625 33.59375 36.40625 
C 36.703125 31.703125 36.703125 25.109375 36.703125 22 
C 36.703125 18.09375 36.5 12.109375 33.796875 7.296875 
C 31 2.703125 26.703125 0.796875 22.90625 0.796875 
z
" id="CMR17-111"/>
       <path d="M 34.90625 35 
C 33 35 30.203125 35 30.203125 31.515625 
C 30.203125 28.71875 32.5 27.921875 33.796875 27.921875 
C 34.5 27.921875 37.40625 28.234375 37.40625 31.625 
C 37.40625 38.546875 30.59375 43.796875 22.90625 43.796875 
C 12.296875 43.796875 3.296875 34.03125 3.296875 21.296875 
C 3.296875 8.0625 12.703125 -1 22.90625 -1 
C 35.296875 -1 38.40625 10.578125 38.40625 11.6875 
C 38.40625 12.09375 38.296875 12.390625 37.59375 12.390625 
C 36.90625 12.390625 36.796875 12.296875 36.40625 10.984375 
C 33.796875 2.8125 28.09375 0.796875 23.796875 0.796875 
C 17.40625 0.796875 9.703125 6.671875 9.703125 21.390625 
C 9.703125 36.53125 17.09375 42 23 42 
C 26.90625 42 32.703125 40.203125 34.90625 35 
z
" id="CMR17-99"/>
       <path d="M 30.90625 42.140625 
C 30.90625 43.953125 30.796875 44.046875 30.203125 44.046875 
C 29.796875 44.046875 29.703125 43.953125 28.5 42.453125 
C 28.203125 42.046875 27.296875 41.03125 27 40.640625 
C 23.796875 44.046875 19.296875 44.046875 17.59375 44.046875 
C 6.5 44.046875 2.5 38.234375 2.5 32.4375 
C 2.5 23.40625 12.703125 21.328125 15.59375 20.703125 
C 21.90625 19.421875 24.09375 19.015625 26.203125 17.203125 
C 27.5 16.015625 29.703125 13.8125 29.703125 10.21875 
C 29.703125 6 27.296875 0.59375 18.09375 0.59375 
C 9.40625 0.59375 6.296875 7.1875 4.5 15.953125 
C 4.203125 17.34375 4.203125 17.453125 3.40625 17.453125 
C 2.59375 17.453125 2.5 17.34375 2.5 15.359375 
L 2.5 0.984375 
C 2.5 -0.796875 2.59375 -0.90625 3.203125 -0.90625 
C 3.703125 -0.90625 3.796875 -0.796875 4.296875 0 
C 4.90625 0.890625 6.40625 3.296875 7 4.3125 
C 9 1.609375 12.5 -1 18.09375 -1 
C 28 -1 33.296875 4.421875 33.296875 12.25 
C 33.296875 17.375 30.59375 20.078125 29.296875 21.28125 
C 26.296875 24.390625 22.796875 25.09375 18.59375 25.890625 
C 13.09375 27.109375 6.09375 28.515625 6.09375 34.640625 
C 6.09375 37.234375 7.5 42.765625 17.59375 42.765625 
C 28.296875 42.765625 28.90625 32.71875 29.09375 29.5 
C 29.203125 29 29.703125 28.890625 30 28.890625 
C 30.90625 28.890625 30.90625 29.203125 30.90625 30.90625 
z
" id="CMR17-115"/>
       <path d="M 54 22.390625 
C 54 9.046875 45.296875 0.59375 35.796875 0.59375 
C 30.703125 0.59375 26.09375 3.28125 23.296875 7.453125 
C 20.09375 12.234375 19.703125 18.40625 19.703125 21.890625 
L 19.703125 60.53125 
C 19.703125 65 20.796875 65 27.703125 65 
L 27.703125 67.5 
C 24.796875 67.5 19.5 67.5 16.40625 67.5 
C 13.296875 67.5 8 67.5 5.09375 67.5 
L 5.09375 65 
C 12 65 13.09375 65 13.09375 60.53125 
L 13.09375 22.390625 
C 13.09375 8.0625 24 -2 35.59375 -2 
C 48.59375 -2 56.09375 11.234375 56.09375 21 
L 56.09375 58.84375 
C 56.09375 64.40625 61.203125 65 64.09375 65 
L 64.09375 67.59375 
C 61.796875 67.5 57.59375 67.5 55.09375 67.5 
C 52.59375 67.5 48.296875 67.5 46 67.59375 
L 46 65 
C 54 65 54 60.328125 54 57.84375 
z
" id="CMR17-85"/>
      </defs>
      <g transform="translate(38.606358 148.19999)scale(0.1 -0.1)">
       <use transform="scale(0.996264)" xlink:href="#CMR17-40"/>
       <use transform="translate(35.280768 0)scale(0.996264)" xlink:href="#CMR17-80"/>
       <use transform="translate(97.867068 0)scale(0.996264)" xlink:href="#CMR17-114"/>
       <use transform="translate(133.147836 0)scale(0.996264)" xlink:href="#CMR17-111"/>
       <use transform="translate(181.440752 0)scale(0.996264)" xlink:href="#CMR17-99"/>
       <use transform="translate(221.926412 0)scale(0.996264)" xlink:href="#CMR17-101"/>
       <use transform="translate(262.412073 0)scale(0.996264)" xlink:href="#CMR17-115"/>
       <use transform="translate(298.213411 0)scale(0.996264)" xlink:href="#CMR17-115"/>
       <use transform="translate(364.090715 0)scale(0.996264)" xlink:href="#CMR17-85"/>
       <use transform="translate(433.163144 0)scale(0.996264)" xlink:href="#CMR17-115"/>
       <use transform="translate(468.964482 0)scale(0.996264)" xlink:href="#CMR17-101"/>
       <use transform="translate(509.450142 0)scale(0.996264)" xlink:href="#CMR17-114"/>
       <use transform="translate(544.73091 0)scale(0.996264)" xlink:href="#CMR17-115"/>
       <use transform="translate(580.532248 0)scale(0.996264)" xlink:href="#CMR17-41"/>
      </g>
     </g>
    </g>
    <g id="ytick_2">
     <g id="line2d_9">
      <path clip-path="url(#p96b546d1f3)" d="M 112.992621 100.1 
L 562.289041 100.1 
" style="fill:none;stroke:#b0b0b0;stroke-dasharray:3.7,1.6;stroke-dashoffset:0;"/>
     </g>
     <g id="line2d_10">
      <g>
       <use style="stroke:#000000;stroke-width:0.8;" x="112.992621" xlink:href="#m045ff11cf1" y="100.1"/>
      </g>
     </g>
     <g id="text_6">
      <!-- Hold Vessel -->
      <defs>
       <path d="M 56.09375 61.015625 
C 56.09375 65.5 57.203125 65.5 64.09375 65.5 
L 64.09375 68 
C 61.203125 68 55.90625 68 52.796875 68 
C 49.703125 68 44.40625 68 41.5 68 
L 41.5 65.5 
C 48.40625 65.5 49.5 65.5 49.5 61 
L 49.5 36.578125 
L 19.703125 36.578125 
L 19.703125 61 
C 19.703125 65.5 20.796875 65.5 27.703125 65.5 
L 27.703125 68 
C 24.796875 68 19.5 68 16.40625 68 
C 13.296875 68 8 68 5.09375 68 
L 5.09375 65.5 
C 12 65.5 13.09375 65.5 13.09375 61.015625 
L 13.09375 6.984375 
C 13.09375 2.5 12 2.5 5.09375 2.5 
L 5.09375 0 
C 8 0 13.296875 0 16.40625 0 
C 19.5 0 24.796875 0 27.703125 0 
L 27.703125 2.5 
C 20.796875 2.5 19.703125 2.5 19.703125 6.96875 
L 19.703125 34 
L 49.5 34 
L 49.5 6.96875 
C 49.5 2.5 48.40625 2.5 41.5 2.5 
L 41.5 0 
C 44.40625 0 49.703125 0 52.796875 0 
C 55.90625 0 61.203125 0 64.09375 0 
L 64.09375 2.5 
C 57.203125 2.5 56.09375 2.5 56.09375 6.984375 
z
" id="CMR17-72"/>
       <path d="M 15.296875 68.6875 
L 3.40625 67.59375 
L 3.40625 65 
C 9.296875 65 10.203125 64.40625 10.203125 59.640625 
L 10.203125 6.65625 
C 10.203125 2.875 9.796875 2.390625 3.40625 2.390625 
L 3.40625 -0.203125 
C 5.796875 0 10.203125 0 12.703125 0 
C 15.296875 0 19.703125 0 22.09375 -0.203125 
L 22.09375 2.390625 
C 15.703125 2.390625 15.296875 2.78125 15.296875 6.65625 
z
" id="CMR17-108"/>
       <path d="M 29.203125 67.59375 
L 29.203125 65 
C 35.09375 65 36 64.40625 36 59.6875 
L 36 36.640625 
C 35.59375 37.140625 31.5 43.59375 23.40625 43.59375 
C 13.203125 43.59375 3.296875 34.5 3.296875 21.3125 
C 3.296875 8.203125 12.59375 -1 22.40625 -1 
C 30.90625 -1 35.296875 5.265625 35.796875 5.9375 
L 35.796875 -0.984375 
L 47.90625 -0.984375 
L 47.90625 2 
C 42 2 41.09375 2.59375 41.09375 7.390625 
L 41.09375 68.6875 
z
M 35.796875 11.796875 
C 35.796875 8.796875 34 6.09375 31.703125 4.09375 
C 28.296875 1.09375 24.90625 0.59375 23 0.59375 
C 20.09375 0.59375 9.703125 2.09375 9.703125 21.1875 
C 9.703125 40.8125 21.296875 42 23.90625 42 
C 28.5 42 32.203125 39.40625 34.5 35.796875 
C 35.796875 33.703125 35.796875 33.40625 35.796875 31.609375 
z
" id="CMR17-100"/>
       <path d="M 59 58.515625 
C 59.90625 60.71875 61.5 65 68.203125 65 
L 68.203125 67.6875 
C 65.90625 67.484375 63.296875 67.484375 60.796875 67.484375 
C 58.40625 67.484375 54.296875 67.484375 52 67.6875 
L 52 65 
C 57 65 57.203125 61.5 57.203125 60.90625 
C 57.203125 59.796875 56.90625 59.109375 56.59375 58.3125 
L 36.90625 6.96875 
L 16.296875 60.71875 
C 16 61.421875 15.796875 61.921875 15.796875 62.40625 
C 15.796875 65 19.796875 65 21.90625 65 
L 21.90625 67.484375 
C 18.703125 67.484375 14 67.484375 10.703125 67.484375 
C 8.09375 67.484375 3.40625 67.484375 1 67.6875 
L 1 65 
C 6.796875 65 7.90625 64.609375 9.09375 61.421875 
L 32.90625 -0.40625 
C 33.40625 -1.796875 33.5 -2 34.59375 -2 
C 35.703125 -2 35.796875 -1.796875 36.296875 -0.40625 
z
" id="CMR17-86"/>
      </defs>
      <g transform="translate(55.791928 103.559249)scale(0.1 -0.1)">
       <use transform="scale(0.996264)" xlink:href="#CMR17-72"/>
       <use transform="translate(69.07243 0)scale(0.996264)" xlink:href="#CMR17-111"/>
       <use transform="translate(114.762907 0)scale(0.996264)" xlink:href="#CMR17-108"/>
       <use transform="translate(139.633965 0)scale(0.996264)" xlink:href="#CMR17-100"/>
       <use transform="translate(220.605302 0)scale(0.996264)" xlink:href="#CMR17-86"/>
       <use transform="translate(281.870476 0)scale(0.996264)" xlink:href="#CMR17-101"/>
       <use transform="translate(322.356136 0)scale(0.996264)" xlink:href="#CMR17-115"/>
       <use transform="translate(358.157474 0)scale(0.996264)" xlink:href="#CMR17-115"/>
       <use transform="translate(393.958812 0)scale(0.996264)" xlink:href="#CMR17-101"/>
       <use transform="translate(434.444472 0)scale(0.996264)" xlink:href="#CMR17-108"/>
      </g>
     </g>
    </g>
    <g id="ytick_3">
     <g id="line2d_11">
      <path clip-path="url(#p96b546d1f3)" d="M 112.992621 55.736 
L 562.289041 55.736 
" style="fill:none;stroke:#b0b0b0;stroke-dasharray:3.7,1.6;stroke-dashoffset:0;"/>
     </g>
     <g id="line2d_12">
      <g>
       <use style="stroke:#000000;stroke-width:0.8;" x="112.992621" xlink:href="#m045ff11cf1" y="55.736"/>
      </g>
     </g>
     <g id="text_7">
      <!-- Preparation Vessel -->
      <defs>
       <path d="M 22 -16.609375 
C 15.59375 -16.609375 15.203125 -16.203125 15.203125 -12.328125 
L 15.203125 6.28125 
C 18.09375 2.09375 22.296875 -0.59375 27.59375 -0.59375 
C 37.59375 -0.59375 47.703125 8.171875 47.703125 21.6875 
C 47.703125 34.234375 39 43.78125 28.703125 43.78125 
C 22.703125 43.78125 17.796875 40.5 15 36.53125 
L 15 43.78125 
L 3.09375 42.6875 
L 3.09375 40.109375 
C 9 40.109375 9.90625 39.5 9.90625 34.734375 
L 9.90625 -12.328125 
C 9.90625 -16.109375 9.5 -16.609375 3.09375 -16.609375 
L 3.09375 -19.1875 
C 5.5 -19 9.90625 -19 12.5 -19 
C 15.09375 -19 19.59375 -19 22 -19.1875 
z
M 15.203125 31.4375 
C 15.203125 32.84375 15.203125 34.921875 19.09375 38.609375 
C 19.59375 39.015625 23 42 28 42 
C 35.296875 42 41.296875 32.9375 41.296875 21.59375 
C 41.296875 10.25 34.90625 1 27 1 
C 23.40625 1 19.5 2.6875 16.5 7.375 
C 15.203125 9.5625 15.203125 10.15625 15.203125 11.75 
z
" id="CMR17-112"/>
       <path d="M 36 25.828125 
C 36 32.375 36 35.84375 31.796875 39.734375 
C 28.09375 43 23.796875 44 20.40625 44 
C 12.5 44 6.796875 37.609375 6.796875 30.796875 
C 6.796875 27 9.796875 27 10.40625 27 
C 11.703125 27 14 27.78125 14 30.53125 
C 14 33 12.09375 34.078125 10.40625 34.078125 
C 10 34.078125 9.5 33.96875 9.203125 33.875 
C 11.296875 40.5 16.703125 42.40625 20.203125 42.40625 
C 25.203125 42.40625 30.703125 37.953125 30.703125 29.453125 
L 30.703125 25 
C 24.796875 25 17.703125 24.203125 12.09375 21.203125 
C 5.796875 17.703125 4 12.703125 4 8.90625 
C 4 1.203125 13 -1 18.296875 -1 
C 23.796875 -1 28.90625 2.171875 31.09375 7.984375 
C 31.296875 3.640625 34.09375 -0.28125 38.5 -0.28125 
C 40.59375 -0.28125 45.90625 1.09375 45.90625 8.859375 
L 45.90625 14.375 
L 44.09375 14.375 
L 44.09375 8.78125 
C 44.09375 2.78125 41.40625 2 40.09375 2 
C 36 2 36 7.15625 36 11.53125 
z
M 30.703125 13.59375 
C 30.703125 4.953125 24.5 0.59375 19 0.59375 
C 14 0.59375 10.09375 4.296875 10.09375 8.90625 
C 10.09375 11.890625 11.40625 17.1875 17.203125 20.390625 
C 22 23.09375 27.5 23.5 30.703125 23.5 
z
" id="CMR17-97"/>
       <path d="M 41.5 30.203125 
C 41.5 35.296875 40.5 43.59375 28.703125 43.59375 
C 20.796875 43.59375 16.703125 37.5 15.203125 33.5 
L 15.09375 33.5 
L 15.09375 43.59375 
L 3.296875 42.5 
L 3.296875 39.90625 
C 9.203125 39.90625 10.09375 39.296875 10.09375 34.5 
L 10.09375 6.6875 
C 10.09375 2.875 9.703125 2.390625 3.296875 2.390625 
L 3.296875 -0.203125 
C 5.703125 0 10.09375 0 12.703125 0 
C 15.296875 0 19.796875 0 22.203125 -0.203125 
L 22.203125 2.390625 
C 15.796875 2.390625 15.40625 2.78125 15.40625 6.6875 
L 15.40625 25.90625 
C 15.40625 35.109375 21 42 28 42 
C 35.40625 42 36.203125 35.40625 36.203125 30.59375 
L 36.203125 6.6875 
C 36.203125 2.875 35.796875 2.390625 29.40625 2.390625 
L 29.40625 -0.203125 
C 31.796875 0 36.203125 0 38.796875 0 
C 41.40625 0 45.90625 0 48.296875 -0.203125 
L 48.296875 2.390625 
C 41.90625 2.390625 41.5 2.78125 41.5 6.6875 
z
" id="CMR17-110"/>
      </defs>
      <g transform="translate(24.88 59.195249)scale(0.1 -0.1)">
       <use transform="scale(0.996264)" xlink:href="#CMR17-80"/>
       <use transform="translate(62.586301 0)scale(0.996264)" xlink:href="#CMR17-114"/>
       <use transform="translate(97.867068 0)scale(0.996264)" xlink:href="#CMR17-101"/>
       <use transform="translate(138.352729 0)scale(0.996264)" xlink:href="#CMR17-112"/>
       <use transform="translate(189.248099 0)scale(0.996264)" xlink:href="#CMR17-97"/>
       <use transform="translate(234.938576 0)scale(0.996264)" xlink:href="#CMR17-114"/>
       <use transform="translate(270.219343 0)scale(0.996264)" xlink:href="#CMR17-97"/>
       <use transform="translate(315.909821 0)scale(0.996264)" xlink:href="#CMR17-116"/>
       <use transform="translate(351.190588 0)scale(0.996264)" xlink:href="#CMR17-105"/>
       <use transform="translate(376.061647 0)scale(0.996264)" xlink:href="#CMR17-111"/>
       <use transform="translate(421.752124 0)scale(0.996264)" xlink:href="#CMR17-110"/>
       <use transform="translate(502.72346 0)scale(0.996264)" xlink:href="#CMR17-86"/>
       <use transform="translate(563.988635 0)scale(0.996264)" xlink:href="#CMR17-101"/>
       <use transform="translate(604.474295 0)scale(0.996264)" xlink:href="#CMR17-115"/>
       <use transform="translate(640.275633 0)scale(0.996264)" xlink:href="#CMR17-115"/>
       <use transform="translate(676.07697 0)scale(0.996264)" xlink:href="#CMR17-101"/>
       <use transform="translate(716.562631 0)scale(0.996264)" xlink:href="#CMR17-108"/>
      </g>
     </g>
    </g>
    <g id="text_8">
     <!-- Process Equipment -->
     <defs>
      <path d="M 60.703125 25.234375 
L 58.90625 25.234375 
C 56.703125 10.5625 55.40625 2.59375 37.796875 2.59375 
L 23.90625 2.59375 
C 19.90625 2.59375 19.703125 3.078125 19.703125 6.46875 
L 19.703125 34 
L 29.09375 34 
C 38.5 34 39.40625 30.625 39.40625 22.34375 
L 41.203125 22.34375 
L 41.203125 48.140625 
L 39.40625 48.140625 
C 39.40625 39.953125 38.5 36.59375 29.09375 36.59375 
L 19.703125 36.59375 
L 19.703125 61.140625 
C 19.703125 64.5 19.90625 65 23.90625 65 
L 37.59375 65 
C 53.09375 65 54.90625 58.890625 56.296875 45.765625 
L 58.09375 45.765625 
L 55.703125 67.578125 
L 5.09375 67.578125 
L 5.09375 65 
C 12 65 13.09375 65 13.09375 60.53125 
L 13.09375 7.046875 
C 13.09375 2.59375 12 2.59375 5.09375 2.59375 
L 5.09375 0 
L 57.09375 0 
z
" id="CMR17-69"/>
      <path d="M 41.09375 43.78125 
L 39.5 43.78125 
L 36.5 33.9375 
C 34.203125 39.203125 30 43.78125 23.296875 43.78125 
C 13.09375 43.78125 3.296875 34.734375 3.296875 21.609375 
C 3.296875 8.5625 12.5 -0.59375 22.5 -0.59375 
C 30.203125 -0.59375 34.5 5.28125 35.796875 7.46875 
L 35.796875 -12.328125 
C 35.796875 -16.109375 35.40625 -16.609375 29 -16.609375 
L 29 -19.1875 
C 31.40625 -19 35.796875 -19 38.40625 -19 
C 41 -19 45.5 -19 47.90625 -19.1875 
L 47.90625 -16.609375 
C 41.5 -16.609375 41.09375 -16.203125 41.09375 -12.328125 
z
M 36 13.84375 
C 36 9.5625 32.40625 5.578125 32.09375 5.28125 
C 29 1.796875 25.40625 1 23 1 
C 15.5 1 9.703125 10.453125 9.703125 21.484375 
C 9.703125 33.140625 16.296875 42 24 42 
C 32 42 36 32.9375 36 27.765625 
z
" id="CMR17-113"/>
      <path d="M 29.40625 42.078125 
L 29.40625 39.5 
C 35.296875 39.5 36.203125 38.890625 36.203125 34.15625 
L 36.203125 16.125 
C 36.203125 7.8125 31.703125 0.59375 24.296875 0.59375 
C 16.09375 0.59375 15.40625 5.4375 15.40625 10.59375 
L 15.40625 43.171875 
L 3.296875 42.078125 
L 3.296875 39.5 
C 7.296875 39.5 10 39.5 10.09375 35.53125 
L 10.09375 16.53125 
C 10.09375 9.890625 10.09375 5.640625 12.703125 2.859375 
C 14 1.578125 16.5 -1 23.703125 -1 
C 32.203125 -1 35.5 5.890625 36.296875 7.90625 
L 36.40625 7.90625 
L 36.40625 -0.984375 
L 48.296875 -0.984375 
L 48.296875 2 
C 42.40625 2 41.5 2.59375 41.5 7.390625 
L 41.5 43.171875 
z
" id="CMR17-117"/>
     </defs>
     <g transform="translate(18.942822 141.956998)rotate(-90)scale(0.1 -0.1)">
      <use transform="scale(0.996264)" xlink:href="#CMR17-80"/>
      <use transform="translate(62.586301 0)scale(0.996264)" xlink:href="#CMR17-114"/>
      <use transform="translate(97.867068 0)scale(0.996264)" xlink:href="#CMR17-111"/>
      <use transform="translate(146.159984 0)scale(0.996264)" xlink:href="#CMR17-99"/>
      <use transform="translate(186.645645 0)scale(0.996264)" xlink:href="#CMR17-101"/>
      <use transform="translate(227.131305 0)scale(0.996264)" xlink:href="#CMR17-115"/>
      <use transform="translate(262.932643 0)scale(0.996264)" xlink:href="#CMR17-115"/>
      <use transform="translate(328.809947 0)scale(0.996264)" xlink:href="#CMR17-69"/>
      <use transform="translate(391.396247 0)scale(0.996264)" xlink:href="#CMR17-113"/>
      <use transform="translate(439.689163 0)scale(0.996264)" xlink:href="#CMR17-117"/>
      <use transform="translate(490.584533 0)scale(0.996264)" xlink:href="#CMR17-105"/>
      <use transform="translate(515.455591 0)scale(0.996264)" xlink:href="#CMR17-112"/>
      <use transform="translate(566.350961 0)scale(0.996264)" xlink:href="#CMR17-109"/>
      <use transform="translate(643.270551 0)scale(0.996264)" xlink:href="#CMR17-101"/>
      <use transform="translate(683.756211 0)scale(0.996264)" xlink:href="#CMR17-110"/>
      <use transform="translate(732.049127 0)scale(0.996264)" xlink:href="#CMR17-116"/>
     </g>
    </g>
   </g>
   <g id="patch_3">
    <path d="M 112.992621 174.04 
L 112.992621 26.16 
" style="fill:none;stroke:#000000;stroke-linecap:square;stroke-linejoin:miter;stroke-width:0.8;"/>
   </g>
   <g id="patch_4">
    <path d="M 562.289041 174.04 
L 562.289041 26.16 
" style="fill:none;stroke:#000000;stroke-linecap:square;stroke-linejoin:miter;stroke-width:0.8;"/>
   </g>
   <g id="patch_5">
    <path d="M 112.992621 174.04 
L 562.289041 174.04 
" style="fill:none;stroke:#000000;stroke-linecap:square;stroke-linejoin:miter;stroke-width:0.8;"/>
   </g>
   <g id="patch_6">
    <path d="M 112.992621 26.16 
L 562.289041 26.16 
" style="fill:none;stroke:#000000;stroke-linecap:square;stroke-linejoin:miter;stroke-width:0.8;"/>
   </g>
   <g id="BrokenBarHCollection_1">
    <path clip-path="url(#p96b546d1f3)" d="M 146.689853 63.13 
L 146.689853 48.342 
L 202.851905 48.342 
L 202.851905 63.13 
L 146.689853 63.13 
z
" style="fill:#ffffff;stroke:#000000;stroke-width:0.5;"/>
    <path clip-path="url(#p96b546d1f3)" d="M 270.246368 63.13 
L 270.246368 48.342 
L 343.257037 48.342 
L 343.257037 63.13 
L 270.246368 63.13 
z
" style="fill:#ffffff;stroke:#000000;stroke-width:0.5;"/>
   </g>
   <g id="BrokenBarHCollection_2">
    <path clip-path="url(#p96b546d1f3)" d="M 202.851905 107.494 
L 202.851905 48.342 
L 270.246368 48.342 
L 270.246368 107.494 
L 202.851905 107.494 
z
" style="fill:#ffffff;stroke:#000000;stroke-dasharray:0.5,0.825;stroke-dashoffset:0;stroke-width:0.5;"/>
   </g>
   <g id="BrokenBarHCollection_3">
    <path clip-path="url(#p96b546d1f3)" d="M 202.851905 63.13 
L 202.851905 48.342 
L 270.246368 48.342 
L 270.246368 63.13 
L 202.851905 63.13 
z
" style="fill:url(#hd87f85de5e);stroke:#000000;stroke-width:0.5;"/>
   </g>
   <g id="BrokenBarHCollection_4">
    <path clip-path="url(#p96b546d1f3)" d="M 141.073648 107.494 
L 141.073648 92.706 
L 202.851905 92.706 
L 202.851905 107.494 
L 141.073648 107.494 
z
" style="fill:#ffffff;stroke:#000000;stroke-width:0.5;"/>
    <path clip-path="url(#p96b546d1f3)" d="M 270.246368 107.494 
L 270.246368 92.706 
L 472.429757 92.706 
L 472.429757 107.494 
L 270.246368 107.494 
z
" style="fill:#ffffff;stroke:#000000;stroke-width:0.5;"/>
    <path clip-path="url(#p96b546d1f3)" d="M 472.429757 107.494 
L 472.429757 92.706 
L 534.208015 92.706 
L 534.208015 107.494 
L 472.429757 107.494 
z
" style="fill:#ffffff;stroke:#000000;stroke-width:0.5;"/>
   </g>
   <g id="BrokenBarHCollection_5">
    <path clip-path="url(#p96b546d1f3)" d="M 202.851905 107.494 
L 202.851905 92.706 
L 270.246368 92.706 
L 270.246368 107.494 
L 202.851905 107.494 
z
" style="fill:url(#hd87f85de5e);stroke:#000000;stroke-width:0.5;"/>
   </g>
   <g id="BrokenBarHCollection_6">
    <path clip-path="url(#p96b546d1f3)" d="M 360.105652 151.858 
L 360.105652 92.706 
L 472.429757 92.706 
L 472.429757 151.858 
L 360.105652 151.858 
z
" style="fill:#ffffff;stroke:#000000;stroke-dasharray:0.5,0.825;stroke-dashoffset:0;stroke-width:0.5;"/>
   </g>
   <g id="BrokenBarHCollection_7">
    <path clip-path="url(#p96b546d1f3)" d="M 360.105652 107.494 
L 360.105652 92.706 
L 472.429757 92.706 
L 472.429757 107.494 
L 360.105652 107.494 
z
" style="fill:url(#ha14e6fd8c3);stroke:#000000;stroke-width:0.5;"/>
   </g>
   <g id="BrokenBarHCollection_8">
    <path clip-path="url(#p96b546d1f3)" d="M 56.830569 151.858 
L 56.830569 137.07 
L 730.775198 137.07 
L 730.775198 151.858 
L 56.830569 151.858 
z
" style="fill:#ffffff;"/>
   </g>
   <g id="BrokenBarHCollection_9">
    <path clip-path="url(#p96b546d1f3)" d="M 360.105652 151.858 
L 360.105652 137.07 
L 376.954268 137.07 
L 376.954268 151.858 
L 360.105652 151.858 
z
" style="fill:url(#ha14e6fd8c3);stroke:#000000;stroke-width:0.5;"/>
    <path clip-path="url(#p96b546d1f3)" d="M 388.186678 151.858 
L 388.186678 137.07 
L 399.419089 137.07 
L 399.419089 151.858 
L 388.186678 151.858 
z
" style="fill:url(#ha14e6fd8c3);stroke:#000000;stroke-width:0.5;"/>
    <path clip-path="url(#p96b546d1f3)" d="M 410.651499 151.858 
L 410.651499 137.07 
L 438.732526 137.07 
L 438.732526 151.858 
L 410.651499 151.858 
z
" style="fill:url(#ha14e6fd8c3);stroke:#000000;stroke-width:0.5;"/>
    <path clip-path="url(#p96b546d1f3)" d="M 449.964936 151.858 
L 449.964936 137.07 
L 472.429757 137.07 
L 472.429757 151.858 
L 449.964936 151.858 
z
" style="fill:url(#ha14e6fd8c3);stroke:#000000;stroke-width:0.5;"/>
   </g>
   <g id="text_9">
    <!-- $\Delta t_{\mathit{PREP,PRE}}$ -->
    <defs>
     <path d="M 40.59375 68.796875 
C 39.796875 70.5 39.40625 70.5 38.59375 70.5 
C 37.40625 70.5 37.296875 70.296875 36.59375 68.890625 
L 4.203125 1.703125 
C 4.09375 1.5 3.703125 0.59375 3.703125 0.5 
C 3.703125 0.09375 3.796875 0 5.59375 0 
L 71.5 0 
C 73.296875 0 73.40625 0.09375 73.40625 0.5 
C 73.40625 0.59375 73 1.5 72.90625 1.703125 
z
M 36.09375 63.09375 
L 63.796875 5.59375 
L 8.296875 5.59375 
z
" id="CMR17-1"/>
     <path d="M 30.59375 31.609375 
L 45.90625 31.609375 
C 58.40625 31.609375 71.59375 41.671875 71.59375 53.4375 
C 71.59375 61.71875 65 68 54.296875 68 
L 25.703125 68 
C 23.90625 68 23 68 23 66.109375 
C 23 65.109375 23.703125 65.109375 25.59375 65.109375 
C 28.09375 65.109375 30.90625 65.109375 30.90625 63.515625 
C 30.90625 62.90625 30.90625 62.609375 30.703125 62.015625 
L 17 7.09375 
C 16.09375 3.59375 15.5 2.796875 9.40625 2.796875 
C 7.59375 2.796875 6.703125 2.796875 6.703125 0.96875 
C 6.703125 0 7.703125 0 8.09375 0 
C 11.59375 0 15.296875 0 18.90625 0 
C 22.5 0 26.40625 0 29.90625 0 
C 30.703125 0 31.796875 0 31.796875 1.828125 
C 31.796875 2.796875 31 2.796875 29.5 2.796875 
C 23.90625 2.796875 23.90625 3.59375 23.90625 4.484375 
L 24.09375 5.984375 
z
M 37.796875 61.3125 
C 38.703125 65.109375 39.40625 65.109375 42.703125 65.109375 
L 51.40625 65.109375 
C 59.59375 65.109375 63.5 61.8125 63.5 55.84375 
C 63.5 54.046875 62.59375 44.65625 57.5 39.09375 
C 57.09375 38.796875 52.703125 34 43.59375 34 
L 31 34 
z
" id="CMTI12-80"/>
     <path d="M 49.59375 33.890625 
C 62 36.78125 70.40625 45.03125 70.40625 53.375 
C 70.40625 61.34375 63 68 50.796875 68 
L 25.703125 68 
C 23.90625 68 23 68 23 66.109375 
C 23 65.109375 23.703125 65.109375 25.59375 65.109375 
C 28.09375 65.109375 30.90625 65.109375 30.90625 63.515625 
C 30.90625 62.921875 30.90625 62.625 30.703125 62.03125 
L 17 7.28125 
C 16.09375 3.796875 15.5 3 9.40625 3 
C 7.59375 3 6.703125 3 6.703125 1.171875 
C 6.703125 0.203125 7.703125 0.203125 8.09375 0.203125 
C 11.5 0.203125 15.296875 0.203125 18.796875 0.203125 
C 22.40625 0.203125 26.203125 0.203125 29.703125 0.203125 
C 30.5 0.203125 31.59375 0.203125 31.59375 2.03125 
C 31.59375 3 30.796875 3 29.296875 3 
C 23.703125 3 23.703125 3.796875 23.703125 4.6875 
L 23.90625 6.171875 
L 30.703125 33 
L 41.5 33 
C 49.40625 33 51.09375 27.75 51.09375 24.09375 
C 51.09375 22.484375 50.296875 19.125 49.59375 16.65625 
C 48.90625 13.875 48 10.1875 48 8.21875 
C 48 0.484375 54.296875 -2 59.703125 -2 
C 67.703125 -2 70.703125 8.328125 70.703125 9.234375 
C 70.703125 10.21875 69.703125 10.21875 69.296875 10.21875 
C 68.203125 10.21875 68.09375 10.03125 67.703125 8.625 
C 66.09375 3.46875 63.296875 0 60 0 
C 56.796875 0 56.59375 2.875 56.59375 5.671875 
C 56.59375 8.640625 57.296875 13.921875 57.703125 17 
C 57.703125 17.1875 58.203125 20.875 58.203125 22.265625 
C 58.203125 28.625 54.09375 32.09375 49.59375 33.890625 
z
M 41.40625 35 
L 31.203125 35 
L 37.796875 61.3125 
C 38.59375 64.5 39.296875 64.8125 40.203125 64.90625 
C 40.90625 65.109375 43.90625 65.109375 45.796875 65.109375 
C 52 65.109375 62.203125 65.109375 62.203125 55.546875 
C 62.203125 53.75 61.703125 35 41.40625 35 
z
" id="CMTI12-82"/>
     <path d="M 66.90625 23.453125 
C 67.296875 24.375 67.296875 24.578125 67.296875 24.671875 
C 67.296875 25.671875 66.296875 25.671875 66 25.671875 
C 65.5 25.671875 65.203125 25.671875 64.90625 25.375 
C 64.703125 25.171875 63.90625 23.15625 63.40625 22.0625 
C 57.90625 8.609375 53.796875 2.890625 38.90625 2.890625 
L 26.703125 2.890625 
C 23.796875 2.890625 23.703125 3 23.703125 4.09375 
C 23.703125 4.5 23.703125 4.703125 24.09375 6.109375 
L 31 34 
L 39.703125 34 
C 46.40625 34 47.203125 32.390625 47.203125 29.578125 
C 47.203125 27.78125 46.5 24.96875 46.296875 24.15625 
C 46.296875 23.953125 46.09375 23.5625 46.09375 23.265625 
C 46.09375 22.265625 47.09375 22.265625 47.5 22.265625 
C 48.703125 22.265625 48.796875 22.65625 49.09375 23.953125 
L 54.703125 46.109375 
C 54.796875 46.515625 54.90625 47.109375 54.90625 47.515625 
C 54.90625 48.5 53.90625 48.5 53.59375 48.5 
C 52.40625 48.5 52.296875 48.203125 52 46.828125 
C 50 39.265625 48.203125 36.890625 40 36.890625 
L 31.703125 36.890625 
L 37.90625 61.515625 
C 38.796875 65 39.5 65 42.703125 65 
L 55.203125 65 
C 67.203125 65 68.296875 60.953125 68.296875 54.921875 
C 68.296875 54.03125 68.296875 52.046875 67.796875 48.890625 
C 67.796875 48.390625 67.59375 47.40625 67.59375 46.90625 
C 67.59375 45.828125 68.5 45.828125 69 45.828125 
C 70.203125 45.828125 70.203125 46.125 70.5 47.90625 
L 72.90625 65.5 
C 72.90625 65.8125 73.09375 66.59375 73.09375 66.890625 
C 73.09375 67.984375 72.296875 67.984375 70.59375 67.984375 
L 25.5 67.984375 
C 23.796875 67.984375 22.90625 67.984375 22.90625 66.03125 
C 22.90625 65 23.703125 65 25.296875 65 
C 30.796875 65 30.796875 64.25 30.796875 63.3125 
C 30.796875 63.015625 30.796875 62.8125 30.40625 61.421875 
L 16.90625 7.1875 
C 16 3.6875 15.40625 2.890625 9.296875 2.890625 
C 7.5 2.890625 6.59375 2.890625 6.59375 1 
C 6.59375 0 7.40625 0 9 0 
L 55.40625 0 
C 57.40625 0 57.5 0.09375 58.09375 1.59375 
z
" id="CMTI12-69"/>
    </defs>
    <g transform="translate(151.336222 58.144228)scale(0.08 -0.08)">
     <use transform="translate(0 14.943915)scale(0.996264)" xlink:href="#CMR17-1"/>
     <use transform="translate(76.91959 14.943915)scale(0.996264)" xlink:href="#CMMI12-116"/>
     <use transform="translate(112.14592 0)scale(0.697382)" xlink:href="#CMTI12-80"/>
     <use transform="translate(158.41253 0)scale(0.697382)" xlink:href="#CMTI12-82"/>
     <use transform="translate(208.166063 0)scale(0.697382)" xlink:href="#CMTI12-69"/>
     <use transform="translate(254.432673 0)scale(0.697382)" xlink:href="#CMTI12-80"/>
     <use transform="translate(307.891063 0)scale(0.697382)" xlink:href="#CMMI12-59"/>
     <use transform="translate(326.858996 0)scale(0.697382)" xlink:href="#CMTI12-80"/>
     <use transform="translate(373.125605 0)scale(0.697382)" xlink:href="#CMTI12-82"/>
     <use transform="translate(422.879139 0)scale(0.697382)" xlink:href="#CMTI12-69"/>
    </g>
   </g>
   <g id="text_10">
    <!-- $\Delta t_{\mathit{PREP,POST}}$ -->
    <defs>
     <path d="M 77.296875 44.5 
C 77.296875 58.9375 68.796875 70.1875 55 70.1875 
C 34.90625 70.1875 14.59375 46.484375 14.59375 23.484375 
C 14.59375 9.140625 23.203125 -2 37 -2 
C 56.796875 -2 77.296875 21.109375 77.296875 44.5 
z
M 37.5 0.296875 
C 28.59375 0.296875 22.796875 8.453125 22.796875 20.609375 
C 22.796875 26.671875 25.09375 43.015625 33.203125 54.453125 
C 39.90625 63.8125 48 68 54.40625 68 
C 62.703125 68 69.5 61.421875 69.5 48.375 
C 69.5 28.96875 55.59375 0.296875 37.5 0.296875 
z
" id="CMTI12-79"/>
     <path d="M 62 67.71875 
C 62.09375 68.015625 62.296875 68.796875 62.296875 69.109375 
C 62.296875 70 61.5 70 61.296875 70 
C 61 70 60.703125 70 59.90625 68.90625 
L 55.40625 62.9375 
C 51.703125 70 44.296875 70 42.5 70 
C 30.796875 70 19.796875 58.484375 19.796875 46.5625 
C 19.796875 44.375 20 40.296875 23.59375 36.4375 
C 25.703125 34.15625 27.5 33.671875 34.40625 31.671875 
C 35.59375 31.265625 39.703125 30.09375 40.5 29.890625 
C 44.703125 28.5 46.5 24.609375 46.5 20.15625 
C 46.5 11.125 38.703125 0.890625 29.59375 0.890625 
C 21.90625 0.890625 14.796875 4.765625 14.796875 14.90625 
C 14.796875 15.890625 15 18.578125 15.59375 20.953125 
L 15.703125 21.75 
C 15.703125 22.640625 14.90625 22.640625 14.40625 22.640625 
C 13.296875 22.640625 13.09375 22.53125 12.703125 20.9375 
L 7.5 0.28125 
C 7.40625 -0.015625 7.203125 -0.796875 7.203125 -1.109375 
C 7.203125 -2 8 -2 8.203125 -2 
C 8.59375 -2 8.703125 -1.90625 9.703125 -0.703125 
L 14.203125 5.265625 
C 16.90625 1.1875 21.40625 -2 29.296875 -2 
C 41.40625 -2 52.59375 10.703125 52.59375 23.625 
C 52.59375 31.453125 48.59375 35.921875 43.59375 37.515625 
C 42.796875 37.703125 35.796875 39.8125 33.90625 40.40625 
C 30.703125 41.28125 26 42.6875 26 50.125 
C 26 58.671875 33.90625 67.3125 42.296875 67.3125 
C 54.296875 67.3125 54.296875 56.1875 54.296875 53.109375 
C 54.296875 51.8125 54.296875 50.125 53.90625 47.25 
C 53.703125 46.65625 53.703125 46.453125 53.703125 46.359375 
C 53.703125 45.359375 54.40625 45.359375 55.09375 45.359375 
C 56.203125 45.359375 56.40625 45.46875 56.796875 47.0625 
z
" id="CMTI12-83"/>
     <path d="M 54 61.28125 
C 54.703125 64.09375 55.296875 64.59375 56.09375 64.796875 
C 56.796875 65 59.703125 65 61.5 65 
C 70.203125 65 74.296875 64.390625 74.296875 57.46875 
C 74.296875 54.453125 73.5 49.328125 73.203125 47.734375 
C 73.203125 47.546875 73 46.828125 73 46.625 
C 73 45.53125 74 45.53125 74.40625 45.53125 
C 75.59375 45.53125 75.703125 45.828125 76 47.4375 
L 79 65.578125 
C 79.203125 66.59375 79.203125 66.6875 79.203125 66.796875 
C 79.203125 67.890625 78.5 67.890625 76.796875 67.890625 
L 26.59375 67.890625 
C 24.5 67.890625 24.296875 67.890625 23.796875 66.28125 
L 17.703125 47.84375 
C 17.59375 47.546875 17.40625 46.828125 17.40625 46.53125 
C 17.40625 45.53125 18.40625 45.53125 18.703125 45.53125 
C 19.703125 45.53125 19.796875 45.625 20.59375 47.640625 
C 25.59375 62.578125 27.796875 65 41.40625 65 
L 44.796875 65 
C 47.09375 65 47.09375 64.59375 47.09375 63.890625 
C 47.09375 63.28125 46.796875 61.96875 46.703125 61.765625 
L 33.203125 7.515625 
C 32.296875 3.796875 31.5 2.796875 23 2.796875 
L 21.796875 2.796875 
C 20 2.796875 19.09375 2.796875 19.09375 0.96875 
C 19.09375 0 20 0 20.796875 0 
C 25.40625 0 30.296875 0 35 0 
C 39.796875 0 44.796875 0 49.5 0 
C 50.5 0 51.59375 0 51.59375 1.734375 
C 51.59375 2.796875 50.90625 2.796875 49.203125 2.796875 
L 48 2.796875 
C 46.296875 2.796875 44.703125 2.796875 43.09375 3 
C 41.203125 3.203125 40.203125 3.328125 40.203125 5 
C 40.203125 5.5 40.203125 5.6875 40.40625 6.703125 
z
" id="CMTI12-84"/>
    </defs>
    <g transform="translate(281.070693 58.144228)scale(0.08 -0.08)">
     <use transform="translate(0 14.943915)scale(0.996264)" xlink:href="#CMR17-1"/>
     <use transform="translate(76.91959 14.943915)scale(0.996264)" xlink:href="#CMMI12-116"/>
     <use transform="translate(112.14592 0)scale(0.697382)" xlink:href="#CMTI12-80"/>
     <use transform="translate(158.41253 0)scale(0.697382)" xlink:href="#CMTI12-82"/>
     <use transform="translate(208.166063 0)scale(0.697382)" xlink:href="#CMTI12-69"/>
     <use transform="translate(254.432673 0)scale(0.697382)" xlink:href="#CMTI12-80"/>
     <use transform="translate(307.891063 0)scale(0.697382)" xlink:href="#CMMI12-59"/>
     <use transform="translate(326.858996 0)scale(0.697382)" xlink:href="#CMTI12-80"/>
     <use transform="translate(373.125605 0)scale(0.697382)" xlink:href="#CMTI12-79"/>
     <use transform="translate(425.429754 0)scale(0.697382)" xlink:href="#CMTI12-83"/>
     <use transform="translate(463.786162 0)scale(0.697382)" xlink:href="#CMTI12-84"/>
    </g>
   </g>
   <g id="text_11">
    <!-- $\Delta t_{\mathit{HOLD,PRE}}$ -->
    <defs>
     <path d="M 72.796875 61 
C 73.703125 64.40625 74.296875 65.203125 80.5 65.203125 
C 82.203125 65.203125 83.09375 65.203125 83.09375 66.9375 
C 83.09375 68 82.203125 68 81.703125 68 
C 78.203125 68 74.5 68 70.90625 68 
C 67.203125 68 63.40625 68 59.796875 68 
C 59 68 57.90625 68 57.90625 66.171875 
C 57.90625 65.203125 58.59375 65.203125 60.5 65.203125 
C 63 65.203125 65.796875 65.203125 65.796875 63.609375 
C 65.796875 63 65.796875 62.703125 65.59375 62.109375 
L 59.296875 36.890625 
L 31.796875 36.890625 
L 37.796875 61 
C 38.703125 64.40625 39.296875 65.203125 45.5 65.203125 
C 47.203125 65.203125 48.09375 65.203125 48.09375 66.9375 
C 48.09375 68 47.203125 68 46.703125 68 
C 43.203125 68 39.5 68 35.90625 68 
C 32.203125 68 28.40625 68 24.796875 68 
C 24 68 22.90625 68 22.90625 66.171875 
C 22.90625 65.203125 23.59375 65.203125 25.5 65.203125 
C 28 65.203125 30.796875 65.203125 30.796875 63.609375 
C 30.796875 63 30.796875 62.703125 30.59375 62.109375 
L 16.90625 7.09375 
C 16 3.59375 15.40625 2.796875 9.296875 2.796875 
C 7.5 2.796875 6.59375 2.796875 6.59375 0.96875 
C 6.59375 0 7.59375 0 8 0 
C 11.5 0 15.203125 0 18.796875 0 
C 22.40625 0 26.296875 0 29.796875 0 
C 30.59375 0 31.703125 0 31.703125 1.828125 
C 31.703125 2.796875 30.90625 2.796875 29.40625 2.796875 
C 23.796875 2.796875 23.796875 3.59375 23.796875 4.5 
L 24 6 
L 31.09375 34 
L 58.59375 34 
L 51.90625 7.109375 
C 51 3.59375 50.40625 2.796875 44.296875 2.796875 
C 42.5 2.796875 41.59375 2.796875 41.59375 0.96875 
C 41.59375 0 42.59375 0 43 0 
C 46.5 0 50.203125 0 53.796875 0 
C 57.40625 0 61.296875 0 64.796875 0 
C 65.59375 0 66.703125 0 66.703125 1.828125 
C 66.703125 2.796875 65.90625 2.796875 64.40625 2.796875 
C 58.796875 2.796875 58.796875 3.59375 58.796875 4.5 
C 58.796875 5.296875 58.90625 5.796875 59 6 
z
" id="CMTI12-72"/>
     <path d="M 37.703125 60.609375 
C 38.59375 64.296875 39.296875 65.203125 46.90625 65.203125 
L 47.59375 65.203125 
C 49.296875 65.203125 50.296875 65.203125 50.296875 66.9375 
C 50.296875 68 49.5 68 48.703125 68 
C 44.703125 68 40.5 68 36.5 68 
C 32.59375 68 28.59375 68 24.796875 68 
C 24 68 22.90625 68 22.90625 66.171875 
C 22.90625 65.203125 23.59375 65.203125 25.5 65.203125 
C 28 65.203125 30.796875 65.203125 30.796875 63.609375 
C 30.796875 63 30.796875 62.703125 30.59375 62.109375 
L 16.90625 7.1875 
C 16 3.6875 15.40625 2.890625 9.296875 2.890625 
C 7.5 2.890625 6.59375 2.890625 6.59375 1 
C 6.59375 0 7.40625 0 9 0 
L 50.296875 0 
C 52.40625 0 52.5 0 53.09375 1.703125 
L 60.703125 23.328125 
C 60.796875 23.640625 61 24.234375 61 24.53125 
C 61 25.234375 60.40625 25.53125 59.703125 25.53125 
C 58.59375 25.53125 58.5 25.4375 57.59375 22.9375 
C 54.703125 14.75 50.40625 2.890625 34.90625 2.890625 
L 26.703125 2.890625 
C 23.796875 2.890625 23.703125 3 23.703125 4.09375 
C 23.703125 4.890625 23.90625 5.6875 24.09375 6.390625 
z
" id="CMTI12-76"/>
     <path d="M 25.703125 68 
C 23.90625 68 23 68 23 66.109375 
C 23 65.109375 23.703125 65.109375 25.59375 65.109375 
C 28.09375 65.109375 30.90625 65.109375 30.90625 63.515625 
C 30.90625 62.90625 30.90625 62.609375 30.703125 62.03125 
L 17 7.171875 
C 16.09375 3.6875 15.5 2.890625 9.40625 2.890625 
C 7.59375 2.890625 6.703125 2.890625 6.703125 1 
C 6.703125 0 7.5 0 9.09375 0 
L 38.5 0 
C 57 0 75.90625 21.109375 75.90625 43.8125 
C 75.90625 58.53125 67.703125 68 55.5 68 
z
M 37.796875 61.328125 
C 38.703125 65.109375 39.296875 65.109375 42.703125 65.109375 
L 52.5 65.109375 
C 63.40625 65.109375 68.40625 57.140625 68.40625 47.484375 
C 68.40625 41.71875 65.59375 25.6875 59.296875 16.140625 
C 54.203125 8.46875 46.203125 2.890625 36.90625 2.890625 
L 26.59375 2.890625 
C 23.703125 2.890625 23.59375 3 23.59375 4.09375 
C 23.59375 4.890625 23.796875 5.6875 24 6.375 
z
" id="CMTI12-68"/>
    </defs>
    <g transform="translate(148.114806 102.508228)scale(0.08 -0.08)">
     <use transform="translate(0 14.943915)scale(0.996264)" xlink:href="#CMR17-1"/>
     <use transform="translate(76.91959 14.943915)scale(0.996264)" xlink:href="#CMMI12-116"/>
     <use transform="translate(112.14592 0)scale(0.697382)" xlink:href="#CMTI12-72"/>
     <use transform="translate(162.835807 0)scale(0.697382)" xlink:href="#CMTI12-79"/>
     <use transform="translate(215.139957 0)scale(0.697382)" xlink:href="#CMTI12-76"/>
     <use transform="translate(257.919642 0)scale(0.697382)" xlink:href="#CMTI12-68"/>
     <use transform="translate(316.012676 0)scale(0.697382)" xlink:href="#CMMI12-59"/>
     <use transform="translate(334.980609 0)scale(0.697382)" xlink:href="#CMTI12-80"/>
     <use transform="translate(381.247218 0)scale(0.697382)" xlink:href="#CMTI12-82"/>
     <use transform="translate(431.000752 0)scale(0.697382)" xlink:href="#CMTI12-69"/>
    </g>
   </g>
   <g id="text_12">
    <!-- $\Delta t_{\mathit{HOLD,POST}}$ -->
    <g transform="translate(477.224563 102.508228)scale(0.08 -0.08)">
     <use transform="translate(0 14.943915)scale(0.996264)" xlink:href="#CMR17-1"/>
     <use transform="translate(76.91959 14.943915)scale(0.996264)" xlink:href="#CMMI12-116"/>
     <use transform="translate(112.14592 0)scale(0.697382)" xlink:href="#CMTI12-72"/>
     <use transform="translate(162.835807 0)scale(0.697382)" xlink:href="#CMTI12-79"/>
     <use transform="translate(215.139957 0)scale(0.697382)" xlink:href="#CMTI12-76"/>
     <use transform="translate(257.919642 0)scale(0.697382)" xlink:href="#CMTI12-68"/>
     <use transform="translate(316.012676 0)scale(0.697382)" xlink:href="#CMMI12-59"/>
     <use transform="translate(334.980609 0)scale(0.697382)" xlink:href="#CMTI12-80"/>
     <use transform="translate(381.247218 0)scale(0.697382)" xlink:href="#CMTI12-79"/>
     <use transform="translate(433.551367 0)scale(0.697382)" xlink:href="#CMTI12-83"/>
     <use transform="translate(471.907775 0)scale(0.697382)" xlink:href="#CMTI12-84"/>
    </g>
   </g>
   <g id="text_13">
    <!-- $\Delta t_{\mathit{TRANSFER}}$ -->
    <defs>
     <path d="M 18.40625 11.21875 
C 15.296875 5.703125 12.5 3.40625 7.5 2.90625 
C 6.40625 2.8125 5.59375 2.703125 5.59375 1 
C 5.59375 0 6.59375 0 6.796875 0 
C 9.203125 0 11.90625 0 14.40625 0 
C 17.09375 0 20 0 22.59375 0 
C 23.296875 0 24.40625 0 24.40625 1.96875 
C 24.40625 2.90625 23.59375 3 23 3 
C 20.59375 3 19.203125 4.1875 19.203125 6.0625 
C 19.203125 7.453125 20 8.734375 20.90625 10.328125 
L 28.203125 23.09375 
L 51.40625 23.09375 
L 52.5 7.234375 
C 52.59375 5.65625 52.796875 3 46.59375 3 
C 45.203125 3 44.296875 3 44.296875 1.03125 
C 44.296875 0 45.296875 0 45.703125 0 
C 49 0 52.59375 0 56 0 
C 59.296875 0 62.703125 0 65.90625 0 
C 66.5 0 67.703125 0 67.703125 1.859375 
C 67.703125 3 67 3 65.703125 3 
C 60.796875 3 60.296875 3.671875 60.09375 6.15625 
L 55.703125 69.09375 
C 55.59375 71.203125 55.5 71.5 54.09375 71.5 
C 52.703125 71.5 52.40625 70.90625 51.703125 69.703125 
z
M 29.90625 26 
L 48.90625 59.59375 
L 51.203125 26 
z
" id="CMTI12-65"/>
     <path d="M 72.09375 58.203125 
C 73.703125 64.390625 77.90625 65.09375 81.59375 65.09375 
C 82 65.09375 83.09375 65.09375 83.09375 66.859375 
C 83.09375 68 82.203125 68 81.796875 68 
C 79 68 76 68 73.09375 68 
C 70.09375 68 67 68 64.09375 68 
C 63.40625 68 62.296875 68 62.296875 66.09375 
C 62.296875 65.1875 63.09375 65.09375 63.796875 65.09375 
C 67.5 65.09375 69.5 64 69.5 61 
C 69.5 60.109375 69.203125 58.90625 69.09375 58.3125 
L 57.90625 13.59375 
L 39.703125 66.5 
C 39.203125 68 39.09375 68 37 68 
L 25.59375 68 
C 23.796875 68 22.90625 68 22.90625 66.09375 
C 22.90625 65.09375 23.59375 65.09375 25.5 65.09375 
C 26.40625 65.09375 29.09375 65.09375 31.296875 64.484375 
L 17.59375 9.625 
C 15.90625 2.90625 11.09375 2.90625 8.09375 2.90625 
C 7.59375 2.90625 6.59375 2.90625 6.59375 1.046875 
C 6.59375 0.09375 7.40625 0 7.796875 0 
C 10.59375 0 13.703125 0 16.59375 0 
C 19.59375 0 22.703125 0 25.59375 0 
C 26.203125 0 27.296875 0 27.296875 1.90625 
C 27.296875 2.8125 26.5 2.90625 25.90625 2.90625 
C 22.90625 2.90625 20.09375 3.59375 20.09375 6.984375 
C 20.09375 7.890625 20.5 9.28125 20.5 9.390625 
L 33.703125 62 
L 54.5 1.5 
C 54.90625 0.296875 55 0 56.203125 0 
C 57.296875 0 57.59375 0.09375 58 1.796875 
z
" id="CMTI12-78"/>
     <path d="M 30.703125 32.109375 
L 39.09375 32.109375 
C 45.40625 32.109375 46.40625 30.625 46.40625 27.859375 
C 46.40625 26.28125 45.796875 23.625 45.5 22.53125 
C 45.5 22.34375 45.296875 21.84375 45.296875 21.640625 
C 45.296875 20.5625 46.203125 20.5625 46.703125 20.5625 
C 47.796875 20.5625 48 20.859375 48.296875 22.25 
L 54.09375 45.84375 
C 54.09375 46.84375 53.09375 46.84375 52.796875 46.84375 
C 51.59375 46.84375 51.5 46.546875 51.09375 45.125 
C 49.203125 37.53125 47.59375 35 39.296875 35 
L 31.40625 35 
L 37.90625 61.453125 
C 38.796875 65 39.5 65 42.703125 65 
L 54.203125 65 
C 64.703125 65 67.09375 61.96875 67.09375 55.109375 
C 67.09375 52.59375 66.796875 50.78125 66.5 48.46875 
C 66.296875 47.046875 66.296875 46.84375 66.296875 46.546875 
C 66.296875 45.4375 67.203125 45.4375 67.703125 45.4375 
C 68.90625 45.4375 68.90625 45.734375 69.203125 47.5625 
L 71.59375 65.453125 
C 71.59375 65.765625 71.796875 66.578125 71.796875 66.875 
C 71.796875 67.984375 71 67.984375 69.296875 67.984375 
L 25.5 67.984375 
C 23.796875 67.984375 22.90625 67.984375 22.90625 66.03125 
C 22.90625 65 23.703125 65 25.296875 65 
C 30.796875 65 30.796875 64.234375 30.796875 63.28125 
C 30.796875 62.984375 30.796875 62.78125 30.40625 61.390625 
L 16.90625 7.09375 
C 16 3.59375 15.40625 2.796875 9.296875 2.796875 
C 7.5 2.796875 6.59375 2.796875 6.59375 0.96875 
C 6.59375 0 7.59375 0 8 0 
C 11.703125 0 15.703125 0 19.5 0 
C 23.59375 0 27.90625 0 31.90625 0 
C 32.796875 0 33.90625 0 33.90625 1.828125 
C 33.90625 2.796875 33.09375 2.796875 31.5 2.796875 
L 30.90625 2.796875 
C 27 2.796875 23.90625 2.796875 23.90625 4.765625 
C 23.90625 5.15625 23.90625 5.359375 24.296875 6.75 
z
" id="CMTI12-70"/>
    </defs>
    <g transform="translate(212.085593 79.910528)scale(0.08 -0.08)">
     <use transform="translate(0 14.943915)scale(0.996264)" xlink:href="#CMR17-1"/>
     <use transform="translate(76.91959 14.943915)scale(0.996264)" xlink:href="#CMMI12-116"/>
     <use transform="translate(112.14592 0)scale(0.697382)" xlink:href="#CMTI12-84"/>
     <use transform="translate(160.963161 0)scale(0.697382)" xlink:href="#CMTI12-82"/>
     <use transform="translate(210.716694 0)scale(0.697382)" xlink:href="#CMTI12-65"/>
     <use transform="translate(261.406581 0)scale(0.697382)" xlink:href="#CMTI12-78"/>
     <use transform="translate(312.096469 0)scale(0.697382)" xlink:href="#CMTI12-83"/>
     <use transform="translate(350.452876 0)scale(0.697382)" xlink:href="#CMTI12-70"/>
     <use transform="translate(394.975993 0)scale(0.697382)" xlink:href="#CMTI12-69"/>
     <use transform="translate(441.242603 0)scale(0.697382)" xlink:href="#CMTI12-82"/>
    </g>
   </g>
   <g id="text_14">
    <!-- $\Delta t_{\mathit{USE},n}$ -->
    <defs>
     <path d="M 72.09375 58.203125 
C 73.703125 64.5 77.90625 65.09375 81.59375 65.09375 
C 82 65.09375 83.09375 65.09375 83.09375 66.859375 
C 83.09375 68 82.203125 68 81.796875 68 
C 79.09375 68 76 68 73.203125 68 
C 67.296875 68 64.5 68 64.40625 68 
C 63.703125 68 62.59375 68 62.59375 66.09375 
C 62.59375 65.1875 63.40625 65.09375 64.09375 65.09375 
C 67.796875 65.09375 69.796875 64 69.796875 61.015625 
C 69.796875 60.125 69.59375 58.921875 69.40625 58.328125 
L 60.5 22.703125 
C 57.59375 11.234375 47.59375 0.890625 37.5 0.890625 
C 31.796875 0.890625 26.796875 4.875 26.796875 13.421875 
C 26.796875 15.703125 27.203125 18.875 27.796875 21.078125 
L 37.796875 60.90625 
C 38.703125 64.296875 39.296875 65.09375 45.5 65.09375 
C 47.203125 65.09375 48.09375 65.09375 48.09375 66.90625 
C 48.09375 68 47.203125 68 46.703125 68 
C 43.203125 68 39.5 68 35.90625 68 
C 32.203125 68 28.40625 68 24.796875 68 
C 24 68 22.90625 68 22.90625 66.09375 
C 22.90625 65.09375 23.59375 65.09375 25.5 65.09375 
C 28 65.09375 30.796875 65.09375 30.796875 63.5 
C 30.796875 62.90625 30.796875 62.609375 30.59375 62.015625 
L 20.796875 22.84375 
C 20 19.671875 20 17.78125 20 16.28125 
C 20 4.546875 28.09375 -2 37.09375 -2 
C 49.203125 -2 60.203125 10.453125 63.09375 22.125 
z
" id="CMTI12-85"/>
    </defs>
    <g transform="translate(400.502985 124.690228)scale(0.08 -0.08)">
     <use transform="translate(0 14.943915)scale(0.996264)" xlink:href="#CMR17-1"/>
     <use transform="translate(76.91959 14.943915)scale(0.996264)" xlink:href="#CMMI12-116"/>
     <use transform="translate(112.14592 0)scale(0.697382)" xlink:href="#CMTI12-85"/>
     <use transform="translate(162.835807 0)scale(0.697382)" xlink:href="#CMTI12-83"/>
     <use transform="translate(201.192215 0)scale(0.697382)" xlink:href="#CMTI12-69"/>
     <use transform="translate(255.950023 0)scale(0.697382)" xlink:href="#CMMI12-59"/>
     <use transform="translate(274.917956 0)scale(0.697382)" xlink:href="#CMMI12-110"/>
    </g>
   </g>
   <g id="text_15">
    <!-- $\textbf{\textit{z}}_{n}$ -->
    <defs>
     <path d="M 31.796875 34.4375 
C 33.296875 34.4375 37.203125 34.4375 38.703125 34.4375 
L 40.796875 34.4375 
C 38.59375 32.15625 36.09375 29.65625 29.09375 23.890625 
C 25.09375 20.703125 20.09375 16.625 17.40625 14.03125 
C 12.703125 9.359375 6.40625 2.28125 6.40625 0.390625 
C 6.40625 -1 7.59375 -1 9.203125 -1 
C 11.203125 -1 11.296875 -0.90625 11.90625 0.03125 
C 13.796875 2.90625 16.59375 6 19.703125 6 
C 22.203125 6 24 4.46875 26 2.90625 
C 28.796875 0.65625 30.90625 -1 34.5 -1 
C 45.703125 -1 52.59375 11.59375 52.59375 15.03125 
C 52.59375 16.546875 51.203125 16.546875 49.796875 16.546875 
C 48.09375 16.546875 47.5 16.546875 47 15.421875 
C 44.796875 9.78125 39.703125 9.78125 31.203125 9.78125 
C 29 9.78125 26.59375 9.78125 24.40625 9.78125 
L 19.59375 9.78125 
C 21.796875 12.046875 24.296875 14.515625 31.296875 20.265625 
C 35.296875 23.4375 40.296875 27.484375 43 30.0625 
C 48.703125 35.609375 54 42.03125 54 43.625 
C 54 45 52.796875 45 51.203125 45 
C 49.203125 45 49.09375 44.890625 48.40625 43.90625 
C 47.203125 42.109375 44.796875 38.234375 43.296875 38.234375 
C 40.796875 38.234375 38.703125 40.015625 36.59375 41.71875 
C 33.59375 44 31.40625 45 28.703125 45 
C 20 45 14.5 36.03125 14.5 33.046875 
C 14.5 31.65625 16 31.65625 17.296875 31.65625 
C 19.296875 31.65625 19.5 31.65625 20.09375 32.953125 
C 20.59375 33.90625 21.40625 34.4375 24.703125 34.4375 
z
" id="CMBXTI10-122"/>
    </defs>
    <g transform="translate(310.367261 102.092528)scale(0.08 -0.08)">
     <use transform="translate(0 14.943915)scale(0.996264)" xlink:href="#CMBXTI10-122"/>
     <use transform="translate(62.709146 0)scale(0.697382)" xlink:href="#CMMI12-110"/>
    </g>
   </g>
   <g id="text_16">
    <!-- Steady-State Equipment Time Utilisation -->
    <defs>
     <path d="M 43.796875 67.03125 
C 43.796875 68.8125 43.703125 68.921875 43.09375 68.921875 
C 42.5 68.921875 42.296875 68.515625 41.90625 67.625 
L 38.90625 61.046875 
C 35.09375 66.515625 29.296875 69 23 69 
C 12.796875 69 4.59375 60.953125 4.59375 50.828125 
C 4.59375 47.75 5.296875 43.375 8.703125 39.21875 
C 12.40625 34.65625 15.90625 33.859375 23.90625 31.765625 
C 26.90625 30.96875 31.90625 29.671875 32.90625 29.28125 
C 38.59375 26.90625 41.59375 20.953125 41.59375 15.390625 
C 41.59375 8.234375 36.5 0.59375 27.796875 0.59375 
C 17.09375 0.59375 7.09375 6.546875 6.40625 20.484375 
C 6.296875 22.078125 6.203125 22.171875 5.5 22.171875 
C 4.703125 22.171875 4.59375 22.078125 4.59375 20.078125 
L 4.59375 -0.015625 
C 4.59375 -1.796875 4.703125 -1.90625 5.296875 -1.90625 
C 6 -1.90625 6.203125 -1.40625 7.59375 1.6875 
C 7.703125 1.984375 7.703125 2.1875 9.59375 5.953125 
C 14.59375 -0.609375 23 -2 27.796875 -2 
C 38.703125 -2 46.40625 7.046875 46.40625 17.5625 
C 46.40625 22.71875 44.5 26.6875 43.40625 28.484375 
C 39.203125 34.84375 34.703125 36.03125 29.90625 37.21875 
C 29.203125 37.53125 29 37.53125 23.40625 38.90625 
C 18 40.296875 15.703125 41 13.203125 43.6875 
C 10.40625 46.75 9.40625 49.9375 9.40625 53.109375 
C 9.40625 59.5625 14.59375 66.609375 23.09375 66.609375 
C 33.703125 66.609375 40.296875 59.15625 41.796875 46.765625 
C 42.09375 44.96875 42.203125 44.875 42.90625 44.875 
C 43.796875 44.875 43.796875 45.171875 43.796875 46.859375 
z
" id="CMR17-83"/>
     <path d="M 39 34.328125 
C 41.5 40.40625 46 40.40625 47.40625 40.40625 
L 47.40625 43 
C 45.5 43 43 43 41.09375 43 
C 39 43 35.703125 43 33.703125 43.09375 
L 33.703125 40.5 
C 37.5 40.203125 37.59375 37.40625 37.59375 36.609375 
C 37.59375 35.625 37.40625 35.125 36.90625 33.921875 
L 26 7.015625 
L 14.09375 36.03125 
C 13.59375 37.21875 13.59375 37.90625 13.59375 38.015625 
C 13.59375 40.203125 15.90625 40.40625 18.296875 40.40625 
L 18.296875 43.09375 
C 15.90625 43 11.59375 43 9.09375 43 
C 6.40625 43 3.203125 43 1 43.09375 
L 1 40.40625 
C 6.40625 40.40625 7 39.90625 8.296875 36.71875 
L 23.203125 0.234375 
C 18.703125 -11.53125 16.09375 -18.40625 9.796875 -18.40625 
C 8.703125 -18.40625 6.203125 -18.109375 4.40625 -16.3125 
C 6.703125 -16.109375 7.703125 -14.71875 7.703125 -13.015625 
C 7.703125 -11.328125 6.5 -9.828125 4.5 -9.828125 
C 2.296875 -9.828125 1.203125 -11.328125 1.203125 -13.125 
C 1.203125 -17.109375 5.296875 -20 9.796875 -20 
C 15.59375 -20 19.203125 -14.40625 21.203125 -9.4375 
z
" id="CMR17-121"/>
     <path d="M 25.5 19 
L 25.5 23.375 
L 0.40625 23.375 
L 0.40625 19 
z
" id="CMR17-45"/>
     <path d="M 62.203125 67.59375 
L 4.5 67.59375 
L 2.796875 45.59375 
L 4.59375 45.59375 
C 5.90625 62.125 7.296875 65 22.703125 65 
C 24.5 65 27.40625 65 28.203125 64.90625 
C 30.09375 64.609375 30.09375 63.40625 30.09375 61.125 
L 30.09375 7.171875 
C 30.09375 3.59375 29.796875 2.5 21.5 2.5 
L 18.703125 2.5 
L 18.703125 0 
C 23.5 0 28.5 0 33.40625 0 
C 38.296875 0 43.296875 0 48.09375 0 
L 48.09375 2.5 
L 45.296875 2.5 
C 37 2.5 36.703125 3.59375 36.703125 7.171875 
L 36.703125 61.125 
C 36.703125 63.3125 36.703125 64.515625 38.5 64.90625 
C 39.296875 65 42.203125 65 44 65 
C 59.296875 65 60.796875 62.125 62.09375 45.59375 
L 63.90625 45.59375 
z
" id="CMR17-84"/>
    </defs>
    <g transform="translate(230.875643 20.16)scale(0.12 -0.12)">
     <use transform="scale(0.996264)" xlink:href="#CMR17-83"/>
     <use transform="translate(50.89537 0)scale(0.996264)" xlink:href="#CMR17-116"/>
     <use transform="translate(86.176138 0)scale(0.996264)" xlink:href="#CMR17-101"/>
     <use transform="translate(126.661798 0)scale(0.996264)" xlink:href="#CMR17-97"/>
     <use transform="translate(172.352275 0)scale(0.996264)" xlink:href="#CMR17-100"/>
     <use transform="translate(223.247645 0)scale(0.996264)" xlink:href="#CMR17-121"/>
     <use transform="translate(271.540561 0)scale(0.996264)" xlink:href="#CMR17-45"/>
     <use transform="translate(301.616527 0)scale(0.996264)" xlink:href="#CMR17-83"/>
     <use transform="translate(352.511897 0)scale(0.996264)" xlink:href="#CMR17-116"/>
     <use transform="translate(387.792665 0)scale(0.996264)" xlink:href="#CMR17-97"/>
     <use transform="translate(433.483142 0)scale(0.996264)" xlink:href="#CMR17-116"/>
     <use transform="translate(468.76391 0)scale(0.996264)" xlink:href="#CMR17-101"/>
     <use transform="translate(539.325536 0)scale(0.996264)" xlink:href="#CMR17-69"/>
     <use transform="translate(601.911837 0)scale(0.996264)" xlink:href="#CMR17-113"/>
     <use transform="translate(650.204753 0)scale(0.996264)" xlink:href="#CMR17-117"/>
     <use transform="translate(701.100123 0)scale(0.996264)" xlink:href="#CMR17-105"/>
     <use transform="translate(725.971181 0)scale(0.996264)" xlink:href="#CMR17-112"/>
     <use transform="translate(776.866551 0)scale(0.996264)" xlink:href="#CMR17-109"/>
     <use transform="translate(853.786141 0)scale(0.996264)" xlink:href="#CMR17-101"/>
     <use transform="translate(894.271801 0)scale(0.996264)" xlink:href="#CMR17-110"/>
     <use transform="translate(942.564717 0)scale(0.996264)" xlink:href="#CMR17-116"/>
     <use transform="translate(1007.921451 0)scale(0.996264)" xlink:href="#CMR17-84"/>
     <use transform="translate(1074.431332 0)scale(0.996264)" xlink:href="#CMR17-105"/>
     <use transform="translate(1099.30239 0)scale(0.996264)" xlink:href="#CMR17-109"/>
     <use transform="translate(1176.22198 0)scale(0.996264)" xlink:href="#CMR17-101"/>
     <use transform="translate(1246.783607 0)scale(0.996264)" xlink:href="#CMR17-85"/>
     <use transform="translate(1315.856037 0)scale(0.996264)" xlink:href="#CMR17-116"/>
     <use transform="translate(1351.136804 0)scale(0.996264)" xlink:href="#CMR17-105"/>
     <use transform="translate(1376.007863 0)scale(0.996264)" xlink:href="#CMR17-108"/>
     <use transform="translate(1400.878921 0)scale(0.996264)" xlink:href="#CMR17-105"/>
     <use transform="translate(1425.74998 0)scale(0.996264)" xlink:href="#CMR17-115"/>
     <use transform="translate(1461.551318 0)scale(0.996264)" xlink:href="#CMR17-97"/>
     <use transform="translate(1507.241795 0)scale(0.996264)" xlink:href="#CMR17-116"/>
     <use transform="translate(1542.522562 0)scale(0.996264)" xlink:href="#CMR17-105"/>
     <use transform="translate(1567.393621 0)scale(0.996264)" xlink:href="#CMR17-111"/>
     <use transform="translate(1613.084098 0)scale(0.996264)" xlink:href="#CMR17-110"/>
    </g>
   </g>
   <g id="BrokenBarHCollection_10">
    <path clip-path="url(#p96b546d1f3)" d="M 146.689853 63.13 
L 146.689853 48.342 
L 343.257037 48.342 
L 343.257037 63.13 
L 146.689853 63.13 
z
" style="fill:none;stroke:#000000;"/>
   </g>
   <g id="BrokenBarHCollection_11">
    <path clip-path="url(#p96b546d1f3)" d="M 141.073648 107.494 
L 141.073648 92.706 
L 534.208015 92.706 
L 534.208015 107.494 
L 141.073648 107.494 
z
" style="fill:none;stroke:#000000;"/>
   </g>
   <g id="BrokenBarHCollection_12">
    <path clip-path="url(#p96b546d1f3)" d="M 56.830569 151.858 
L 56.830569 137.07 
L 730.775198 137.07 
L 730.775198 151.858 
L 56.830569 151.858 
z
" style="fill:none;stroke:#000000;stroke-dasharray:3.7,1.6;stroke-dashoffset:0;"/>
   </g>
  </g>
 </g>
 <defs>
  <clipPath id="p96b546d1f3">
   <rect height="147.88" width="449.29642" x="112.992621" y="26.16"/>
  </clipPath>
 </defs>
 <defs>
  <pattern height="72" id="hd87f85de5e" patternUnits="userSpaceOnUse" width="72" x="0" y="0">
   <rect fill="#ffffff" height="73" width="73" x="0" y="0"/>
   <path d="M -36 36 
L 36 -36 
M -32 40 
L 40 -32 
M -28 44 
L 44 -28 
M -24 48 
L 48 -24 
M -20 52 
L 52 -20 
M -16 56 
L 56 -16 
M -12 60 
L 60 -12 
M -8 64 
L 64 -8 
M -4 68 
L 68 -4 
M 0 72 
L 72 0 
M 4 76 
L 76 4 
M 8 80 
L 80 8 
M 12 84 
L 84 12 
M 16 88 
L 88 16 
M 20 92 
L 92 20 
M 24 96 
L 96 24 
M 28 100 
L 100 28 
M 32 104 
L 104 32 
M 36 108 
L 108 36 
" style="fill:#000000;stroke:#000000;stroke-linecap:butt;stroke-linejoin:miter;stroke-width:0.5;"/>
  </pattern>
  <pattern height="72" id="ha14e6fd8c3" patternUnits="userSpaceOnUse" width="72" x="0" y="0">
   <rect fill="#ffffff" height="73" width="73" x="0" y="0"/>
   <path d="M -36 36 
L 36 108 
M -32 32 
L 40 104 
M -28 28 
L 44 100 
M -24 24 
L 48 96 
M -20 20 
L 52 92 
M -16 16 
L 56 88 
M -12 12 
L 60 84 
M -8 8 
L 64 80 
M -4 4 
L 68 76 
M 0 0 
L 72 72 
M 4 -4 
L 76 68 
M 8 -8 
L 80 64 
M 12 -12 
L 84 60 
M 16 -16 
L 88 56 
M 20 -20 
L 92 52 
M 24 -24 
L 96 48 
M 28 -28 
L 100 44 
M 32 -32 
L 104 40 
M 36 -36 
L 108 36 
" style="fill:#000000;stroke:#000000;stroke-linecap:butt;stroke-linejoin:miter;stroke-width:0.5;"/>
  </pattern>
 </defs>
</svg>
